<svg xmlns="http://www.w3.org/2000/svg" version="1.1" xmlns:xlink="http://www.w3.org/1999/xlink" xmlns:svgjs="http://svgjs.dev/svgjs" viewBox="0 0 800 800"><defs><filter id="ssspot-filter" x="-20%" y="-20%" width="140%" height="140%" filterUnits="objectBoundingBox" primitiveUnits="userSpaceOnUse" color-interpolation-filters="sRGB">
	<feTurbulence type="turbulence" baseFrequency="0.022 0.218" numOctaves="2" seed="118" stitchTiles="stitch" x="0%" y="0%" width="100%" height="100%" result="turbulence"></feTurbulence>
	<feGaussianBlur stdDeviation="0 3" x="0%" y="0%" width="100%" height="100%" in="turbulence" edgeMode="duplicate" result="blur"></feGaussianBlur>
	<feDisplacementMap in="SourceGraphic" in2="blur" scale="32" xChannelSelector="R" yChannelSelector="B" x="0%" y="0%" width="100%" height="100%" result="displacementMap"></feDisplacementMap>
</filter></defs><rect width="100%" height="100%" fill="#f0f0f0"></rect><g fill="hsl(32, 100%, 51%)" filter="url(#ssspot-filter)"><circle r="9.364957452519038" cx="181.75925150844972" cy="256.13807137259454" opacity="0.9580691839856083"></circle><circle r="6.591864565872126" cx="713.49699852073" cy="616.5770753826315" opacity="0.34136176449178524"></circle><circle r="8.558423942615523" cx="519.4501573052994" cy="663.4576159007556" opacity="0.9284144160551636"></circle><circle r="4.061408761998828" cx="385.60044554896626" cy="278.0975730926689" opacity="0.7462125564043236"></circle><circle r="5.246954782836793" cx="492.89112120110525" cy="405.0644659283334" opacity="0.803674717505604"></circle><circle r="4.324357317994954" cx="755.693623120427" cy="139.3407578190234" opacity="0.7622658720970553"></circle><circle r="3.6918651090209385" cx="471.2431661861063" cy="15.827335404723843" opacity="0.28665994328664546"></circle><circle r="5.2936929748068895" cx="789.2443228777179" cy="227.52948862541072" opacity="0.29114798869574177"></circle><circle r="3.901274776024552" cx="464.0938548036739" cy="102.13027709403285" opacity="0.5559846164658382"></circle><circle r="6.063839252956662" cx="298.0875488546323" cy="258.6462091764575" opacity="0.9021936157657479"></circle><circle r="6.193500789076654" cx="350.1364695494839" cy="288.2131141564161" opacity="0.7415377606646113"></circle><circle r="5.995693723707227" cx="501.6773304199552" cy="697.0364334730597" opacity="0.7019973181446526"></circle><circle r="2.9607334349694026" cx="112.48974259767192" cy="9.98134310845181" opacity="0.966013545726856"></circle><circle r="8.562289267728294" cx="212.57792689993173" cy="369.8003253869605" opacity="0.40191975006826874"></circle><circle r="4.404609424584797" cx="496.9038142519548" cy="16.502920410336298" opacity="0.6654199939733766"></circle><circle r="6.021641940590067" cx="59.42844354684246" cy="200.76792218071935" opacity="0.6198142203044444"></circle><circle r="4.255614231824923" cx="304.0271828954777" cy="317.25367432723226" opacity="0.4441092314706945"></circle><circle r="3.8527106962459543" cx="532.2423061983136" cy="227.97127946506373" opacity="0.6494330034774319"></circle><circle r="9.168690919140804" cx="375.8372421112383" cy="88.52361685052489" opacity="0.33080558020535733"></circle><circle r="6.416752151200125" cx="782.2720050237102" cy="567.1548488852808" opacity="0.4642946714356323"></circle><circle r="6.903518142483452" cx="100.94358667305893" cy="69.35097690766958" opacity="0.21129282130401075"></circle><circle r="4.849441147728097" cx="488.6385188111287" cy="440.2644589287463" opacity="0.23035396690792195"></circle><circle r="4.191540779148506" cx="695.2967914060393" cy="646.5925206335969" opacity="0.13110214186331606"></circle><circle r="4.6308477568432425" cx="591.028008613487" cy="513.1132930654347" opacity="0.624823859783898"></circle><circle r="5.179701414170608" cx="634.2789188191144" cy="666.588485731858" opacity="0.7948324843966127"></circle><circle r="5.923434304111901" cx="715.0125944361723" cy="568.7837432451611" opacity="0.2901815436056594"></circle><circle r="6.904431240432648" cx="171.20551676162071" cy="528.3245720451732" opacity="0.8232168948801122"></circle><circle r="7.824738772956492" cx="776.6823549713204" cy="611.4663048440706" opacity="0.7629914011192817"></circle><circle r="7.3344547413279795" cx="744.0232221623032" cy="587.3508475658433" opacity="0.4865412666456691"></circle><circle r="5.159859679820725" cx="409.6871832903623" cy="230.74583104755195" opacity="0.10693796185272066"></circle><circle r="6.6787753212673096" cx="55.554694697961125" cy="467.74565002697864" opacity="0.25601691326201137"></circle><circle r="5.586928846654079" cx="705.0743051727635" cy="733.3124159054516" opacity="0.9817864673546728"></circle><circle r="6.44157951451791" cx="565.8094554275349" cy="222.1908033900074" opacity="0.806721923283455"></circle><circle r="4.911560639569424" cx="191.4137747443754" cy="61.216546743770365" opacity="0.8995989661646767"></circle><circle r="6.940103060060844" cx="16.681503447272675" cy="708.056616834409" opacity="0.8709204805165484"></circle><circle r="7.378120891471276" cx="384.67275539777484" cy="349.89632776008744" opacity="0.44973353256294846"></circle><circle r="6.264051595589434" cx="542.7404571872905" cy="703.6787147257987" opacity="0.49072367808646755"></circle><circle r="6.525868726123237" cx="203.3301537071615" cy="524.2200972216061" opacity="0.2729999245321523"></circle><circle r="6.810775277380365" cx="51.90049762199476" cy="304.87699412803323" opacity="0.3381635085199273"></circle><circle r="5.806310509408036" cx="118.34391517947701" cy="99.83514911364708" opacity="0.7790498455845489"></circle><circle r="4.013129809685172" cx="388.8987007304874" cy="597.3886089388776" opacity="0.9604346981461972"></circle><circle r="6.58459740848979" cx="478.56100692400685" cy="239.82141086711093" opacity="0.16033189170170994"></circle><circle r="6.737520287840924" cx="467.81802369750454" cy="609.7725598319627" opacity="0.8581440875388313"></circle><circle r="8.12900218508113" cx="90.46918792674468" cy="476.20352803214047" opacity="0.20625834285846975"></circle><circle r="4.13786237449563" cx="136.84546888771297" cy="418.29382233418204" opacity="0.2753480711695248"></circle><circle r="6.57579650672468" cx="237.51761929976144" cy="463.7229562830113" opacity="0.6753056592429715"></circle><circle r="6.344271963996714" cx="124.31471297173371" cy="755.7037100847492" opacity="0.2427636628649266"></circle><circle r="5.78696903527376" cx="556.538085688925" cy="669.9425808410066" opacity="0.816355530306138"></circle><circle r="4.165709435489901" cx="675.7267400529778" cy="621.4085765801782" opacity="0.15768320020689852"></circle><circle r="6.424277939012211" cx="97.73943062096106" cy="692.7178319123576" opacity="0.6441789100888755"></circle><circle r="3.9819095847708237" cx="45.61175136723101" cy="653.3932024064544" opacity="0.5562693085789483"></circle><circle r="8.132368612785054" cx="15.731403739852936" cy="327.401823826186" opacity="0.14755689380346848"></circle><circle r="4.668050550287175" cx="781.7483180058913" cy="101.57479280527859" opacity="0.7119271864251275"></circle><circle r="9.11980342170366" cx="586.935636985979" cy="546.2261120560163" opacity="0.8486928564603111"></circle><circle r="5.855459785344452" cx="79.43357701634541" cy="543.9286952753447" opacity="0.3586010807761745"></circle><circle r="8.126214761389772" cx="573.9343383900517" cy="108.07624795621405" opacity="0.8645607588481851"></circle><circle r="8.496386708039738" cx="733.0632988179756" cy="250.23157278980634" opacity="0.5519756990710487"></circle><circle r="7.12179291994984" cx="729.8187492670748" cy="163.8164473807128" opacity="0.6800651561929112"></circle><circle r="7.463038749701406" cx="538.7222741113103" cy="324.56816998697906" opacity="0.38176284251903614"></circle><circle r="4.721021211147326" cx="307.3080403986815" cy="515.1294983345163" opacity="0.5173968482313187"></circle><circle r="5.063444406044688" cx="783.6052154876056" cy="759.714208520618" opacity="0.6061196775999605"></circle><circle r="6.636371741370722" cx="539.2820481489606" cy="118.14927903130894" opacity="0.7487750327728173"></circle><circle r="3.8525021252050227" cx="788.89296351988" cy="278.272636586073" opacity="0.5772807163005721"></circle><circle r="3.8231525013949725" cx="660.8385907738747" cy="307.6315837448564" opacity="0.2666794217485673"></circle><circle r="5.334027815121546" cx="44.60542659405972" cy="149.37448896188724" opacity="0.8419342026694364"></circle><circle r="6.51695395890688" cx="481.5315212659933" cy="650.5626183212648" opacity="0.5949799575393255"></circle><circle r="4.119418155390649" cx="408.9598831138145" cy="8.591959299211355" opacity="0.15023435548157937"></circle><circle r="7.884558894840918" cx="607.4956515034138" cy="124.27697256026035" opacity="0.20139570122418685"></circle><circle r="6.021724904403481" cx="34.021052240558234" cy="487.72741695194935" opacity="0.5661418049802256"></circle><circle r="6.439328981446289" cx="451.0658011748282" cy="565.4971663031965" opacity="0.5043840840170382"></circle><circle r="5.790844938702621" cx="704.4439188881732" cy="193.29491773409606" opacity="0.13446533882304423"></circle><circle r="7.4809847276992905" cx="90.07580726306442" cy="655.254841625072" opacity="0.9816174833232513"></circle><circle r="4.633861214937546" cx="644.2998261622454" cy="772.2274248176493" opacity="0.5109307302514728"></circle><circle r="5.688881954824607" cx="774.4304248977855" cy="210.72383634563278" opacity="0.19009369214598382"></circle><circle r="9.587670562170963" cx="608.7856269857676" cy="163.55450967903542" opacity="0.208218029700743"></circle><circle r="7.369576543793985" cx="485.2092380212052" cy="78.62660692690534" opacity="0.5844883511568464"></circle><circle r="6.732165621013182" cx="639.4979106060874" cy="604.440073462819" opacity="0.3172955674947472"></circle><circle r="5.464213206224304" cx="109.55045765940136" cy="545.6339506706962" opacity="0.1668095702671571"></circle><circle r="9.639390596887601" cx="213.3432390047167" cy="677.5845040485872" opacity="0.5850194406850967"></circle><circle r="4.436848006308235" cx="715.4785096918896" cy="708.9448366313378" opacity="0.833591832954021"></circle><circle r="7.9540156348913635" cx="630.7030248393924" cy="53.4484387434152" opacity="0.3468089190133342"></circle><circle r="5.657097988246196" cx="378.4934746449113" cy="534.7395596464285" opacity="0.9579954417830319"></circle><circle r="6.039637770378464" cx="614.7431009693913" cy="614.7243022909462" opacity="0.3045842800575771"></circle><circle r="4.5906649107087585" cx="263.94317056629984" cy="250.68907010540207" opacity="0.537646567346072"></circle><circle r="6.384130187051213" cx="733.2560275304119" cy="757.9610942562454" opacity="0.5569395409821932"></circle><circle r="4.575166218681138" cx="749.6350121356674" cy="196.05333159443083" opacity="0.5832152677592192"></circle><circle r="5.309849040247776" cx="639.2795602318013" cy="16.10278702926411" opacity="0.40671933269654126"></circle><circle r="5.634867395578592" cx="690.7982136489451" cy="527.4520555558698" opacity="0.3505987497816011"></circle><circle r="7.09687185987822" cx="324.4881252220401" cy="737.6509416245982" opacity="0.48331238910168095"></circle><circle r="7.5123357136980715" cx="539.3704868758529" cy="290.46432307172995" opacity="0.9216073921608682"></circle><circle r="3.7170081930164036" cx="54.75588785987108" cy="427.8314132384032" opacity="0.3728560207211251"></circle><circle r="4.7569337463223045" cx="85.30216742229193" cy="141.82974507604857" opacity="0.7461488811625415"></circle><circle r="6.193392553720372" cx="110.16034879554387" cy="434.2984254627994" opacity="0.4047114076254905"></circle><circle r="5.41247344154231" cx="540.3078498374155" cy="564.986643201191" opacity="0.9539656166524642"></circle><circle r="8.039990175733934" cx="351.9477110075822" cy="475.3487741604296" opacity="0.15974086287085118"></circle><circle r="4.671934050356564" cx="665.6842838634676" cy="334.17018422667894" opacity="0.9049303792881496"></circle><circle r="3.9789323111836215" cx="392.6374931123729" cy="692.2551377691798" opacity="0.5135917015449691"></circle><circle r="9.689056553795243" cx="272.84460373603264" cy="401.2249264297114" opacity="0.41755141847742305"></circle><circle r="6.75904490207191" cx="568.0929608235144" cy="148.078838708391" opacity="0.24550672946678873"></circle><circle r="4.266993611953032" cx="578.2637421255836" cy="725.4568587659528" opacity="0.6223778540398796"></circle><circle r="6.094122998568116" cx="398.76472766446534" cy="721.2481078722622" opacity="0.7052041622872294"></circle><circle r="8.011164608257474" cx="161.67834933341862" cy="200.67569690681486" opacity="0.5340310708813353"></circle><circle r="4.542588096557554" cx="234.91064888162757" cy="775.7750610782905" opacity="0.3346652712212109"></circle><circle r="4.265882415768635" cx="469.5595014747292" cy="173.23455300404507" opacity="0.7078802755582079"></circle><circle r="4.141627370426524" cx="161.92924862391624" cy="53.27110435359306" opacity="0.7976274138457161"></circle><circle r="9.072538798229981" cx="759.5142113373947" cy="344.955483229932" opacity="0.4174658802574792"></circle><circle r="5.673430743920058" cx="200.87539747193878" cy="605.768880881081" opacity="0.15118132106727727"></circle><circle r="9.12051670888817" cx="195.04123567400316" cy="198.80993439809947" opacity="0.767221255962559"></circle><circle r="6.862211690392931" cx="98.38036162118117" cy="171.09186484438527" opacity="0.3487236831573455"></circle><circle r="4.112688824729071" cx="129.99758869055435" cy="323.30204543015486" opacity="0.9642052092551455"></circle><circle r="5.283933735380016" cx="261.1521107245131" cy="39.96093961605713" opacity="0.17506069231599702"></circle><circle r="8.22254862094059" cx="472.8977381961488" cy="278.7988142320369" opacity="0.6091945912217126"></circle><circle r="4.621478320346543" cx="307.5770011426451" cy="129.8624589421448" opacity="0.770956950611571"></circle><circle r="5.881687372237564" cx="746.9417345220545" cy="785.7337761804297" opacity="0.31265005481797065"></circle><circle r="3.7195263924999478" cx="680.5962767244804" cy="728.0236061679361" opacity="0.35895718512348873"></circle><circle r="7.536159309851099" cx="33.81418051938955" cy="737.659723995104" opacity="0.9801263611654865"></circle><circle r="5.279060363403516" cx="38.906009934382126" cy="552.1327243559709" opacity="0.9593523951847354"></circle><circle r="6.0611592163539525" cx="617.959855097229" cy="504.28834090356867" opacity="0.4010516199674692"></circle><circle r="4.821831763669476" cx="505.8040144088788" cy="540.1542732681977" opacity="0.9832294199479678"></circle><circle r="5.414150750083198" cx="63.489410057562964" cy="742.4618920779008" opacity="0.3949591063864484"></circle><circle r="3.351600648549025" cx="739.6785005446065" cy="725.5678358538793" opacity="0.33062611598552005"></circle><circle r="4.058062208502318" cx="94.49461504953936" cy="746.2318167429966" opacity="0.310312110792727"></circle><circle r="4.065275588971971" cx="209.34460774537192" cy="237.02930868250118" opacity="0.5468432843787071"></circle><circle r="4.948817677111478" cx="397.43175511829105" cy="456.74575267182314" opacity="0.45844132096836987"></circle><circle r="3.7427241748783255" cx="679.0832639817191" cy="219.19790918183864" opacity="0.3394222712997176"></circle><circle r="8.325290791872751" cx="627.7158871999818" cy="214.16160224027422" opacity="0.6153403903347566"></circle><circle r="4.560604014281589" cx="530.9077221227844" cy="83.38491091548894" opacity="0.25124283842832673"></circle><circle r="5.957145991604843" cx="11.798924929494946" cy="609.8257329551766" opacity="0.46946745441268267"></circle><circle r="6.184386499035863" cx="278.8829402996321" cy="487.9586510475727" opacity="0.20385121962619446"></circle><circle r="4.50072095768302" cx="446.5314130022346" cy="244.74142599098764" opacity="0.3283579313538216"></circle><circle r="5.045256682110829" cx="59.086393898336844" cy="175.39271515471935" opacity="0.4729299375074507"></circle><circle r="4.472812615093931" cx="227.63506376990307" cy="279.5333466060214" opacity="0.2354054357556036"></circle><circle r="4.2662822960819495" cx="8.63174315807051" cy="224.75561917976987" opacity="0.6871113403477874"></circle><circle r="3.728762803471198" cx="17.763664029405916" cy="649.6553808833673" opacity="0.30555752287173965"></circle><circle r="6.374884081913596" cx="429.267927075794" cy="96.18582944624403" opacity="0.5022982954252219"></circle><circle r="8.152131323396585" cx="57.6121810277058" cy="684.0967136773503" opacity="0.10037068553030988"></circle><circle r="4.666053237350804" cx="487.0358387888061" cy="143.08965519342613" opacity="0.6392687394940001"></circle><circle r="7.05258551659514" cx="437.9662936830805" cy="183.51787650403145" opacity="0.7791770392005807"></circle><circle r="4.817972948561042" cx="762.7163866151443" cy="269.0404224477438" opacity="0.9641176405748357"></circle><circle r="5.722515993854971" cx="293.4035835325906" cy="161.93200574941238" opacity="0.7809855405267517"></circle><circle r="4.691074432365117" cx="675.171909872688" cy="687.7906220250421" opacity="0.3839776769938146"></circle><circle r="3.6083475624095653" cx="104.33154580073655" cy="721.3106553689117" opacity="0.31213180513364885"></circle><circle r="4.424881405032171" cx="252.5001771625074" cy="725.0967479402722" opacity="0.9659830157194942"></circle><circle r="8.726548229826694" cx="769.1196437796222" cy="428.72623755717325" opacity="0.4508673121837241"></circle><circle r="6.113327522186998" cx="527.3895646774437" cy="20.17319585755727" opacity="0.8066973732922983"></circle><circle r="6.701617386216814" cx="689.8967000639454" cy="71.53243545620643" opacity="0.7549976581357367"></circle><circle r="5.957824525329421" cx="268.1407957290562" cy="563.3422944239774" opacity="0.40967703884444995"></circle><circle r="3.179331779914379" cx="343.07407347718896" cy="575.0515635670992" opacity="0.7838705084644114"></circle><circle r="8.304397593943788" cx="95.70692562152634" cy="208.10806196116738" opacity="0.9595314700813353"></circle><circle r="4.371557930860518" cx="587.423622934758" cy="75.76753674126442" opacity="0.13403242264449866"></circle><circle r="4.815654181953947" cx="137.58112661045857" cy="388.1095617789163" opacity="0.9169579453203552"></circle><circle r="6.446875021964708" cx="65.63968075558122" cy="605.5707554964371" opacity="0.6277402589596073"></circle><circle r="4.249757373537012" cx="417.5872950177682" cy="66.80912810886068" opacity="0.24482275078963311"></circle><circle r="4.313788149319141" cx="98.71342778689575" cy="265.2852791855824" opacity="0.28048828847853213"></circle><circle r="4.355349047156084" cx="650.7207530952205" cy="738.7848736342225" opacity="0.6270068372910814"></circle><circle r="7.942198945174813" cx="354.40054232312616" cy="697.2796438666034" opacity="0.3253696868102559"></circle><circle r="4.324710997504532" cx="374.68062659002976" cy="670.1591971212075" opacity="0.7681326255254385"></circle><circle r="4.6014277262321635" cx="525.3041954126774" cy="438.69143238638003" opacity="0.6684907020108614"></circle><circle r="5.460760549179262" cx="362.61070209790756" cy="557.0635642434441" opacity="0.12812144145979995"></circle><circle r="8.26479350947939" cx="152.7657432529303" cy="294.72352220575283" opacity="0.24362886831301755"></circle><circle r="7.0399344780306645" cx="320.78621637701207" cy="400.2437505007227" opacity="0.9801034043965942"></circle><circle r="7.015904574827061" cx="735.5265995972874" cy="287.22560610571895" opacity="0.9721635106275239"></circle><circle r="5.850114529494388" cx="410.2371420133267" cy="304.21001430273554" opacity="0.7639720779951574"></circle><circle r="7.503208937480624" cx="377.90787388388355" cy="313.01239000028835" opacity="0.8802987741960799"></circle><circle r="4.965514421336752" cx="641.1445209771931" cy="271.7945416127717" opacity="0.629637113529866"></circle><circle r="5.770650644593106" cx="113.51981985146841" cy="379.3272741001317" opacity="0.7233794103952842"></circle><circle r="6.762140218595022" cx="468.60230436735156" cy="526.0330858428242" opacity="0.20296057527690026"></circle><circle r="7.072430829382519" cx="545.4727401345657" cy="53.31046808369531" opacity="0.1451373207462983"></circle><circle r="4.834327857012878" cx="775.4813602443622" cy="245.81963920993954" opacity="0.2761552899877444"></circle><circle r="4.079181088371108" cx="759.6384532001641" cy="745.8812602728946" opacity="0.5676784219747402"></circle><circle r="4.207790809736413" cx="369.23250970770613" cy="647.586515255819" opacity="0.26504261903655874"></circle><circle r="5.4052843816719935" cx="672.3785761585946" cy="443.9906132668818" opacity="0.7953449629416438"></circle><circle r="6.120963862579114" cx="423.7254700159783" cy="736.1552884394406" opacity="0.7269460305164177"></circle><circle r="7.547361404217037" cx="463.51121259877783" cy="209.25224047009175" opacity="0.8867348665559213"></circle><circle r="6.778748451531865" cx="675.6358403820836" cy="487.1262236789285" opacity="0.4446869354301044"></circle><circle r="9.130766406633878" cx="718.1960595030507" cy="325.81887422076755" opacity="0.16060269328957233"></circle><circle r="6.2937763715504875" cx="350.58460747935044" cy="433.2249612247526" opacity="0.5459790495520835"></circle><circle r="2.7707444567737323" cx="700.2830062090461" cy="235.37038824105136" opacity="0.20934037354291538"></circle><circle r="5.209212208904278" cx="491.2657083944174" cy="195.70252305760155" opacity="0.36342147185751905"></circle><circle r="4.389771263007935" cx="230.78741291172287" cy="202.6225755349296" opacity="0.7863779981268015"></circle><circle r="9.250134301833931" cx="585.5445988291154" cy="587.9116200694049" opacity="0.9695679280891517"></circle><circle r="6.618917434366313" cx="163.63141156483502" cy="417.1570942672606" opacity="0.5809671691769229"></circle><circle r="8.412846394504339" cx="242.14233253666265" cy="635.3341412828195" opacity="0.6376901384150799"></circle><circle r="3.721202920545953" cx="570.2128898991552" cy="783.1885379469359" opacity="0.8156935607982602"></circle><circle r="6.1188110265935975" cx="133.51634420486718" cy="451.553282323684" opacity="0.14295739482102376"></circle><circle r="7.553337700494064" cx="662.1472682832782" cy="154.43070463562427" opacity="0.9723369377022242"></circle><circle r="3.8544464941564742" cx="188.445960309088" cy="88.59287357701142" opacity="0.6897966387113253"></circle><circle r="6.039792563871009" cx="206.44280264363985" cy="310.224567122869" opacity="0.5172006326152856"></circle><circle r="3.432030960662156" cx="303.5128702940491" cy="789.5927198127532" opacity="0.4616298255874868"></circle><circle r="5.214075162537844" cx="638.6929358683528" cy="415.7595452940695" opacity="0.6846482946956288"></circle><circle r="5.667917665788874" cx="438.5723760934673" cy="661.6666494402047" opacity="0.635955524510973"></circle><circle r="5.248165904465198" cx="130.8903699918455" cy="52.02844172035627" opacity="0.24946108443421447"></circle><circle r="4.825792367139937" cx="483.7062557925642" cy="734.4382324783459" opacity="0.7489312823299217"></circle><circle r="4.806025390811066" cx="61.56890679030421" cy="225.4182363673435" opacity="0.28064790594557154"></circle><circle r="3.596818222077583" cx="718.2495633257623" cy="13.283459312070743" opacity="0.6262654665923748"></circle><circle r="5.123194817398461" cx="714.8094706316267" cy="101.55920045074052" opacity="0.6361987124960953"></circle><circle r="3.958959233148864" cx="418.48306368530257" cy="685.4468929100942" opacity="0.528289186530216"></circle><circle r="7.145435575574686" cx="491.5475636282879" cy="339.5487845676691" opacity="0.6842151084456684"></circle><circle r="2.6859217819500114" cx="548.321598426228" cy="764.3165173042322" opacity="0.9706992006160132"></circle><circle r="5.568096788642349" cx="169.10738310606982" cy="468.047925807148" opacity="0.42643170901720284"></circle><circle r="4.6116917920674725" cx="625.4748412213578" cy="91.31374740643902" opacity="0.43286323166375185"></circle><circle r="6.724887187908605" cx="449.3080279262409" cy="394.74998623782693" opacity="0.37429722891735573"></circle><circle r="5.953633373289747" cx="763.9197603645738" cy="71.42645788999276" opacity="0.1372359172047438"></circle><circle r="5.139815178836518" cx="173.92796362170927" cy="573.3432787853088" opacity="0.8202296050819545"></circle><circle r="9.954066722306191" cx="779.1086396625249" cy="383.9678798040691" opacity="0.7890081786262109"></circle><circle r="6.710477030362748" cx="14.704389502316456" cy="154.62569048020404" opacity="0.5471666978729278"></circle><circle r="6.077300754242804" cx="38.618070269464695" cy="586.6498687316488" opacity="0.3939829420210953"></circle><circle r="6.279933646395001" cx="236.24069996540206" cy="238.71008698320927" opacity="0.592746635332544"></circle><circle r="5.613228963812196" cx="344.41170190665923" cy="520.5854009285222" opacity="0.30768126335843005"></circle><circle r="5.562872773775059" cx="137.46443742291305" cy="532.3018728509803" opacity="0.46189405190584343"></circle><circle r="6.037185616504665" cx="89.96425592399723" cy="368.3853419208056" opacity="0.17901488651338116"></circle><circle r="9.319343445302605" cx="676.1574770733532" cy="25.03193032292139" opacity="0.16699357407745533"></circle><circle r="5.7265108831548766" cx="424.2465558874085" cy="543.3658063792765" opacity="0.8951764702906798"></circle><circle r="5.2476745453483264" cx="730.7644974146605" cy="127.44175403350881" opacity="0.1845999021002396"></circle><circle r="6.429584930739823" cx="659.25617506616" cy="649.0366946079068" opacity="0.27815253681278407"></circle><circle r="6.562949369436754" cx="292.4444937684128" cy="539.8107570704193" opacity="0.9926828449881767"></circle><circle r="6.242079968237766" cx="736.4763357346029" cy="689.1362195193844" opacity="0.9662816883448153"></circle><circle r="8.071784977210125" cx="371.690299774774" cy="182.78558584127285" opacity="0.7462746410935062"></circle><circle r="6.11119426154063" cx="637.9992766333169" cy="470.5243351801268" opacity="0.2759561181244459"></circle><circle r="5.511176197667215" cx="30.89606875019637" cy="784.0348108587206" opacity="0.534259858000842"></circle><circle r="5.110270480619556" cx="678.6739609643117" cy="110.24398457611638" opacity="0.9069778618901551"></circle><circle r="4.534552045407441" cx="64.54095711959013" cy="401.0655487793146" opacity="0.4289459572860852"></circle><circle r="4.505000480691093" cx="437.80028818260405" cy="633.8369715119696" opacity="0.5865919322301291"></circle><circle r="4.550677853585982" cx="320.8971356805269" cy="279.1859958367848" opacity="0.12700950239709038"></circle><circle r="5.2478688163408" cx="92.76518762975738" cy="406.0414166646565" opacity="0.8446856468818312"></circle><circle r="5.3872437259049715" cx="534.7647616721629" cy="403.9354582778394" opacity="0.4573507445581342"></circle><circle r="3.2175826031049954" cx="115.60000063607191" cy="407.966842860768" opacity="0.573103763277482"></circle><circle r="8.424762432164789" cx="388.8642672642917" cy="420.7521967497376" opacity="0.6063754801168221"></circle><circle r="6.306453185496551" cx="523.5231470648803" cy="730.259732252673" opacity="0.5594528556706104"></circle><circle r="4.3295509830513135" cx="549.0195422308515" cy="742.9278589461738" opacity="0.22102335243442445"></circle><circle r="6.498977171359472" cx="320.9580033442241" cy="38.183104740288776" opacity="0.2045144131780215"></circle><circle r="3.610904723520994" cx="291.1561210060222" cy="618.4743864052734" opacity="0.6924946512759173"></circle><circle r="4.842357543829434" cx="576.2400462456143" cy="260.3775635770498" opacity="0.5463168834450303"></circle><circle r="8.264721145827412" cx="238.9264505558113" cy="590.0929793992736" opacity="0.6985921606852022"></circle><circle r="6.038453161514785" cx="615.1085302510525" cy="688.3375586213142" opacity="0.9056538584003337"></circle><circle r="5.735715103882015" cx="449.4463374815319" cy="151.9962126611505" opacity="0.296540236945316"></circle><circle r="6.284714006115246" cx="419.24898165761" cy="486.43448061053664" opacity="0.8232122841882543"></circle><circle r="5.20403734560404" cx="362.7041074156389" cy="252.62830857506893" opacity="0.6299555634719513"></circle><circle r="4.715417808172846" cx="55.05613202142609" cy="116.6130839901684" opacity="0.13728976224104023"></circle><circle r="5.68777980884846" cx="29.526736157241213" cy="441.56260522765746" opacity="0.1508248484541124"></circle><circle r="8.812475813477072" cx="438.0980149561134" cy="283.1912176228277" opacity="0.3182317254453973"></circle><circle r="3.450667749528117" cx="510.0607152284236" cy="786.6713418656625" opacity="0.5572172631828609"></circle><circle r="10.653613952810332" cx="714.2133924437759" cy="431.33704009736624" opacity="0.5006443595880319"></circle><circle r="7.079285765541637" cx="709.9092806223515" cy="44.29213417577375" opacity="0.8918039936984513"></circle><circle r="5.242086482989186" cx="275.48477867695476" cy="316.9812833940355" opacity="0.24722612122979232"></circle><circle r="5.771043187362007" cx="118.27504372014754" cy="286.29415431329863" opacity="0.27367155500734613"></circle><circle r="6.073708658549653" cx="147.4457803684291" cy="786.6991901919491" opacity="0.41126445691665847"></circle><circle r="3.123430841028335" cx="789.7339497899081" cy="69.97291361221313" opacity="0.30639423131772636"></circle><circle r="7.146888814193913" cx="198.55015137978322" cy="755.6632882878313" opacity="0.8452037548101605"></circle><circle r="5.532583907331334" cx="147.63001053661162" cy="505.72120386054087" opacity="0.7341859126768072"></circle><circle r="7.7122050843709005" cx="197.04713485227495" cy="415.9910837219625" opacity="0.5064567723154052"></circle><circle r="3.9368092237346857" cx="162.7492280647192" cy="641.1398057482935" opacity="0.6448547692888331"></circle><circle r="6.979642792514099" cx="329.252229565822" cy="774.7611129129427" opacity="0.7940711533407897"></circle><circle r="7.773303053303441" cx="429.6734596256989" cy="596.4514173520873" opacity="0.9173265307674776"></circle><circle r="8.002329828612464" cx="130.9476999242636" cy="674.0943219536719" opacity="0.4304551673204652"></circle><circle r="3.8623022765885757" cx="448.394585331149" cy="22.317767297457394" opacity="0.6248442454946791"></circle><circle r="5.818798907486818" cx="181.1173886136006" cy="18.237103396740025" opacity="0.6128184041707726"></circle><circle r="5.051193988679279" cx="112.6713918652651" cy="347.3859137453997" opacity="0.9250557498284785"></circle><circle r="8.016771589263904" cx="219.13721821972453" cy="721.7456451102939" opacity="0.4660208152493033"></circle><circle r="4.155470369423387" cx="755.8710685847278" cy="176.55684381285914" opacity="0.6487517738004456"></circle><circle r="7.373663765554635" cx="112.62398767395898" cy="592.6856091010411" opacity="0.2935006940622656"></circle><circle r="3.997128909524468" cx="601.8624726152987" cy="644.911317399191" opacity="0.9602383528607281"></circle><circle r="7.338969445655276" cx="202.14497164724784" cy="485.8683470084857" opacity="0.30636781033803345"></circle><circle r="7.050951106553117" cx="255.5645451735785" cy="352.36411617865707" opacity="0.8647309315228334"></circle><circle r="3.685905580128592" cx="392.8744011031211" cy="786.938199043313" opacity="0.30157637543743676"></circle><circle r="5.708127382092724" cx="629.3289126878102" cy="720.0578859484759" opacity="0.7388895003097333"></circle><circle r="2.945411437970975" cx="790.4075580379803" cy="338.6617167736961" opacity="0.34934093571928604"></circle><circle r="6.294496623144612" cx="305.21629482375545" cy="578.3576698226711" opacity="0.15009379728698063"></circle><circle r="5.984664387837702" cx="699.8655418328367" cy="137.89854096018124" opacity="0.5467853800201123"></circle><circle r="7.217653082063374" cx="174.9688735522737" cy="329.55420417220165" opacity="0.8483861978163825"></circle><circle r="7.606078639364773" cx="656.1358978905763" cy="237.46181815301196" opacity="0.6191061020764391"></circle><circle r="5.931765121589571" cx="186.83907930532172" cy="657.0874349978802" opacity="0.5890352695307656"></circle><circle r="5.9113438055214695" cx="622.1498773654895" cy="569.930818070472" opacity="0.41208306101525705"></circle><circle r="4.327353274260405" cx="11.06087781189763" cy="560.649299064682" opacity="0.8368617419706255"></circle><circle r="6.516323241397048" cx="377.2382828747014" cy="763.750443006403" opacity="0.13596219904317122"></circle><circle r="5.462829369070326" cx="668.2629959892076" cy="404.854794698096" opacity="0.8792831714469548"></circle><circle r="7.352326343706779" cx="300.91815514064865" cy="361.8064709721256" opacity="0.9904933477462187"></circle><circle r="3.918309030990457" cx="15.993783127639595" cy="677.1228449630322" opacity="0.40300768490168304"></circle><circle r="5.215193039454566" cx="510.4674060799291" cy="504.6240936513744" opacity="0.5205595325224232"></circle><circle r="4.7652440945813765" cx="644.3609208394734" cy="126.39485244728861" opacity="0.7598509517348402"></circle><circle r="6.434162152417025" cx="727.065305770535" cy="662.0793909297669" opacity="0.2114890110411638"></circle><circle r="4.2948284986971235" cx="693.3163586475342" cy="256.4843662648471" opacity="0.5630734127134199"></circle><circle r="7.732838807402163" cx="483.0001786587235" cy="374.77104568352894" opacity="0.619838619394026"></circle><circle r="4.834601411358607" cx="544.9344989308507" cy="257.5110590069257" opacity="0.5149683511567411"></circle><circle r="4.330644699022157" cx="379.62962537795335" cy="622.701906995064" opacity="0.6813082912424252"></circle><circle r="5.9594048425945125" cx="601.839900070652" cy="780.9999985609945" opacity="0.6917165673810542"></circle><circle r="4.421827608582083" cx="316.7930476125502" cy="623.6351108992893" opacity="0.8627974267075296"></circle><circle r="10.933910829189688" cx="175.8110798972397" cy="154.58889245023124" opacity="0.3853784894558768"></circle><circle r="8.306069043597915" cx="261.92159849243177" cy="526.3146214286238" opacity="0.43079777700133404"></circle><circle r="5.86641966207831" cx="130.30851394010278" cy="176.47390950081012" opacity="0.2648644169448305"></circle><circle r="5.0576648389408" cx="593.9472769462812" cy="202.8464090909692" opacity="0.2653191298582825"></circle><circle r="6.0399069487455606" cx="305.50389340203236" cy="674.6969965169884" opacity="0.4235334661992235"></circle><circle r="5.558978882716769" cx="19.32814506544075" cy="109.88011500046416" opacity="0.6932633128191847"></circle><circle r="6.6878860296411835" cx="308.2382239128625" cy="443.31459148228345" opacity="0.2380616354570831"></circle><circle r="5.93033573010469" cx="224.0922935303114" cy="128.49110429830202" opacity="0.29504839012567197"></circle><circle r="6.051370346120558" cx="464.5625248039629" cy="709.6207637644206" opacity="0.20136733263358164"></circle><circle r="6.075430820891169" cx="280.3042409518139" cy="281.0539884374477" opacity="0.5719147159885076"></circle><circle r="8.29199178570084" cx="223.9113088927179" cy="163.7083813581077" opacity="0.9386838880238758"></circle><circle r="5.556351730404413" cx="92.00400117160348" cy="44.552039552873616" opacity="0.13303605542117225"></circle><circle r="5.171336655277091" cx="162.60662214969048" cy="92.60419536395297" opacity="0.7111909680998082"></circle><circle r="6.428060314591145" cx="424.63804458515455" cy="414.4550718299999" opacity="0.7921924790561993"></circle><circle r="5.792759120113569" cx="699.4585655787531" cy="168.280657148879" opacity="0.38200565945850706"></circle><circle r="3.299136363552431" cx="444.99242829799414" cy="126.88448698447134" opacity="0.1331718712560327"></circle><circle r="4.143293654931378" cx="753.3586074491119" cy="18.14919400255383" opacity="0.7608784096720145"></circle><circle r="6.3162259764073" cx="453.81672272530517" cy="460.83884786539176" opacity="0.7913424257831619"></circle><circle r="4.127180345854764" cx="756.5097628522866" cy="306.7962032958594" opacity="0.4516692809660344"></circle><circle r="3.8596325788581805" cx="761.8305987560283" cy="698.9411062250662" opacity="0.7757342323123494"></circle><circle r="6.72696702279309" cx="334.8829681937384" cy="658.0028445665372" opacity="0.8186974706594917"></circle><circle r="9.219638313643294" cx="490.46610959366853" cy="573.1605605933117" opacity="0.218181053134441"></circle><circle r="9.12469864587963" cx="602.2946223075415" cy="405.2577546067514" opacity="0.7129941196744929"></circle><circle r="7.633973540589675" cx="170.3075922759889" cy="376.9286709580546" opacity="0.251339719060664"></circle><circle r="5.902417806659601" cx="145.23597953496412" cy="355.19671201332505" opacity="0.9019093421377321"></circle><circle r="5.819732549217581" cx="729.3009320464656" cy="519.3899312606655" opacity="0.6639883565507347"></circle><circle r="5.868487460591125" cx="743.2330683929482" cy="50.614453913911994" opacity="0.11960666795353558"></circle><circle r="7.1877164941033165" cx="353.44328312924176" cy="19.962175803295402" opacity="0.3193557355986745"></circle><circle r="8.340815775590288" cx="408.22080907881855" cy="168.38438750981305" opacity="0.3411834798740789"></circle><circle r="5.752204419812956" cx="661.8609445543029" cy="586.9331193532265" opacity="0.9038232103138744"></circle><circle r="6.479113223545189" cx="544.891708639518" cy="638.3049374984573" opacity="0.711238745906543"></circle><circle r="8.046406281267608" cx="126.08662125769285" cy="639.5310601313747" opacity="0.9723826625427323"></circle><circle r="6.547301535490444" cx="565.2643854534113" cy="14.821968664516506" opacity="0.7323460426531163"></circle><circle r="7.481781424362708" cx="16.542061941007127" cy="411.97858126821575" opacity="0.3614187783890094"></circle><circle r="4.387478250668246" cx="438.47051028653374" cy="700.0317122988592" opacity="0.22151451298437158"></circle><circle r="4.956758189908075" cx="80.94729606633194" cy="510.5187504480899" opacity="0.8053215841529299"></circle><circle r="5.649463350004712" cx="676.745886150965" cy="558.330408203504" opacity="0.5151261268448155"></circle><circle r="4.498590251950084" cx="499.12575649990123" cy="50.28504110106579" opacity="0.614130546907254"></circle><circle r="9.520571347573032" cx="141.50998449788608" cy="253.37231007585171" opacity="0.5740307021293674"></circle><circle r="3.4366417417005275" cx="538.859959558389" cy="786.5029728104478" opacity="0.740989174761732"></circle><circle r="4.783350315008661" cx="570.7042359402047" cy="300.35934546069143" opacity="0.30845893885138964"></circle><circle r="5.559640120215274" cx="658.4917094963439" cy="75.47120675963555" opacity="0.2989281351014281"></circle><circle r="7.3512853268863765" cx="136.38650757959493" cy="565.5464261005686" opacity="0.432021723741538"></circle><circle r="6.824579824504682" cx="626.6330785181424" cy="309.959969440928" opacity="0.6876651019626179"></circle><circle r="6.086003706369574" cx="434.4027597625301" cy="777.2139643288486" opacity="0.9744513332363065"></circle><circle r="4.046958124311995" cx="578.5598622641647" cy="703.3782549977352" opacity="0.6229852079880115"></circle><circle r="9.920562605578347" cx="55.98349123050709" cy="60.080685747780784" opacity="0.1333034610502563"></circle><circle r="5.814230642690355" cx="113.34150803666776" cy="502.7241842394058" opacity="0.19308237711308246"></circle><circle r="2.84786236737489" cx="573.3126889942426" cy="746.0882320700689" opacity="0.5872768793932907"></circle><circle r="8.39320474178134" cx="148.28952762935967" cy="607.8599887611393" opacity="0.8921656473607181"></circle><circle r="4.817487036584506" cx="464.785982389204" cy="678.1456987861693" opacity="0.42011580197524423"></circle><circle r="6.777106670156545" cx="635.2679070281335" cy="387.66448381991506" opacity="0.23721168654393537"></circle><circle r="6.0980467183886855" cx="453.4674636847566" cy="745.3709969705983" opacity="0.5028815668790281"></circle><circle r="6.161381754693377" cx="505.67964547264756" cy="167.17181869767268" opacity="0.262602812588949"></circle><circle r="8.465348114207288" cx="711.8088111565236" cy="481.6237852993282" opacity="0.8918610576432899"></circle><circle r="5.157308201692207" cx="76.4695826998159" cy="574.1259315710247" opacity="0.8425451601584208"></circle><circle r="8.329742778985889" cx="91.77681770367933" cy="321.65032001367086" opacity="0.5479020413446031"></circle><circle r="5.436535716366713" cx="222.70289442211313" cy="555.7206514679409" opacity="0.4618205756993833"></circle><circle r="4.724344086249357" cx="380.6841296114328" cy="492.16101997805345" opacity="0.2037427886330897"></circle><circle r="3.448592850988045" cx="26.94684214054807" cy="229.17857071912235" opacity="0.8739402576505036"></circle><circle r="7.945381930802642" cx="337.2640010372653" cy="191.13077267114676" opacity="0.4600297303572872"></circle><circle r="5.473228675766884" cx="783.658247971169" cy="310.0927980603345" opacity="0.23054381301382365"></circle><circle r="7.59369984767546" cx="604.8108874173711" cy="340.3583730429757" opacity="0.3235061397828755"></circle><circle r="7.654009845767" cx="80.50131290572709" cy="290.35848247472745" opacity="0.4508404652442697"></circle><circle r="4.457273219474181" cx="730.5764614095701" cy="78.89364799183598" opacity="0.7158687675792132"></circle><circle r="8.48830987013977" cx="358.80718308110573" cy="734.8690253141561" opacity="0.3578858179073019"></circle><circle r="8.080952795724915" cx="475.04194123205394" cy="780.176469158067" opacity="0.5977112105012777"></circle><circle r="8.787453088148876" cx="267.85328328791627" cy="119.41173624816214" opacity="0.9562655536313202"></circle><circle r="6.089640719376323" cx="20.682492174780005" cy="190.2824578086084" opacity="0.294041798294683"></circle><circle r="5.868288675809252" cx="404.06064591726397" cy="657.8439860724164" opacity="0.9063894933016104"></circle><circle r="4.513152643821705" cx="546.1039792979531" cy="493.1399785768489" opacity="0.1300771048633176"></circle><circle r="8.715887516695688" cx="448.338865826578" cy="361.0540402558653" opacity="0.6361743312059247"></circle><circle r="4.719876552668116" cx="65.41132032601878" cy="638.4424370187397" opacity="0.12687545189691693"></circle><circle r="4.576321032779036" cx="85.25977141502764" cy="443.7455799694181" opacity="0.13865421435653041"></circle><circle r="6.763972419443343" cx="12.543790788526358" cy="754.5391064313468" opacity="0.6538816491313899"></circle><circle r="4.993913378395392" cx="503.26892944292337" cy="470.908907438509" opacity="0.6683100200773916"></circle><circle r="7.146383050650215" cx="93.41509034405217" cy="617.5889201115732" opacity="0.5798312236319922"></circle><circle r="5.974372091224979" cx="693.6439714000711" cy="348.50320759318504" opacity="0.8186959009456797"></circle><circle r="9.488373114546931" cx="729.7497194967709" cy="377.97262489794423" opacity="0.3159591596536597"></circle><circle r="5.3012918476831254" cx="547.844951649783" cy="602.3941564440794" opacity="0.6289705103152728"></circle><circle r="5.477225079978174" cx="261.3770843187696" cy="215.59270352916798" opacity="0.5643558237311996"></circle><circle r="6.214869990896589" cx="20.52784708749408" cy="279.49665475735264" opacity="0.9100907895329177"></circle><circle r="5.6655720028191725" cx="193.34890805621387" cy="786.9041975106895" opacity="0.39692806225657173"></circle><circle r="6.4997857378525286" cx="610.0279114229439" cy="252.9424286968938" opacity="0.170494856870211"></circle><circle r="4.955875036780052" cx="735.5847943790222" cy="212.8269212431559" opacity="0.19718896631157856"></circle><circle r="7.297756436712639" cx="573.5776325159122" cy="421.964335155522" opacity="0.16728663729743026"></circle><circle r="5.675883989060019" cx="19.45557301420415" cy="66.11820862068355" opacity="0.4547813214229174"></circle><circle r="6.996617289673422" cx="710.1237641400705" cy="781.7108642235528" opacity="0.46878698663766794"></circle><circle r="5.993021096775222" cx="403.44811806116417" cy="518.8827319423873" opacity="0.9921603994886633"></circle><circle r="6.06250166642026" cx="608.5726399693607" cy="370.2683159242882" opacity="0.37808266154015735"></circle><circle r="3.5544344560897416" cx="350.3110594255017" cy="598.8308020450052" opacity="0.33753541056557673"></circle><circle r="4.341199723002157" cx="761.4247871839393" cy="660.5952135995176" opacity="0.4153462795057429"></circle><circle r="5.578447841195316" cx="444.3597108782797" cy="501.8409264665228" opacity="0.15704450048333946"></circle><circle r="6.688731591582705" cx="498.6738631027775" cy="111.32537756465652" opacity="0.2663201253742984"></circle><circle r="7.0268307190224455" cx="64.10117033576182" cy="364.20412694766225" opacity="0.47890601200713057"></circle><circle r="6.962835109219719" cx="564.9988043578078" cy="452.4491152930923" opacity="0.6793362005202321"></circle><circle r="7.000694544986845" cx="605.0030734609883" cy="22.579456094754864" opacity="0.8576918247243932"></circle><circle r="5.557423740334366" cx="629.905115876541" cy="638.4950098146625" opacity="0.12934171653293566"></circle><circle r="5.254466442426017" cx="787.224206796635" cy="647.3666336606134" opacity="0.9396820818465673"></circle><circle r="8.049011278921846" cx="384.69143029921827" cy="43.09346575165523" opacity="0.7279325866482912"></circle><circle r="9.833038938873354" cx="271.84680148665365" cy="768.3442540719618" opacity="0.9386125114297931"></circle><circle r="5.412006262632601" cx="759.516552494" cy="473.2272731702556" opacity="0.1507046701060316"></circle><circle r="4.43926716897294" cx="130.40845115891415" cy="140.2673038720887" opacity="0.675272817670218"></circle><circle r="8.116254434230171" cx="523.9974483683943" cy="362.64461681606565" opacity="0.8822524192486757"></circle><circle r="9.462339301791825" cx="21.00895101925398" cy="21.155146670061395" opacity="0.558046272524674"></circle><circle r="5.187922292193953" cx="703.8430153952509" cy="292.3060686125308" opacity="0.49189338985384856"></circle><circle r="5.267541842730971" cx="328.7717693118513" cy="237.69065233802985" opacity="0.34268446252122997"></circle><circle r="4.788733913937778" cx="99.84257233021421" cy="786.5772853967942" opacity="0.9795107785400634"></circle><circle r="8.62892910604355" cx="272.2752647385291" cy="451.48984487922024" opacity="0.5910444309867517"></circle><circle r="5.407995480220761" cx="712.7177878299709" cy="218.66790158668854" opacity="0.3696986225252368"></circle><circle r="6.085397253140195" cx="60.572641359745084" cy="265.4040125246468" opacity="0.7384270496744354"></circle><circle r="6.57554670091223" cx="586.03143834163" cy="675.2141735227153" opacity="0.8087111175484493"></circle><circle r="5.165210886245731" cx="268.63003930270287" cy="604.3026383881626" opacity="0.8749997456733641"></circle><circle r="5.471658880036072" cx="645.000833849189" cy="183.78581246170367" opacity="0.7912327682519006"></circle><circle r="8.352188240149577" cx="246.21909190934863" cy="84.34457549793233" opacity="0.17870415747562446"></circle><circle r="5.713506883952659" cx="62.330661264986695" cy="17.5458498417925" opacity="0.9463304515116518"></circle><circle r="4.321733278668239" cx="460.5655542056722" cy="424.3491560563578" opacity="0.20474583834963656"></circle><circle r="6.278192866798227" cx="781.7824441233155" cy="785.5101169288794" opacity="0.2652901268863301"></circle><circle r="7.475100652930925" cx="410.92530340182" cy="382.6579662330429" opacity="0.3368497293463455"></circle><circle r="7.1850963028223465" cx="641.4582323343454" cy="539.4478737475886" opacity="0.15731649080831772"></circle><circle r="6.072762242121234" cx="652.6616937461321" cy="703.6706698202123" opacity="0.362787920124944"></circle><circle r="5.9214524571438645" cx="225.8210419475302" cy="50.66155031342689" opacity="0.9026756573483428"></circle><circle r="5.254180005245534" cx="397.6625057198457" cy="570.7071922993149" opacity="0.19837086897748707"></circle><circle r="2.9365672822828284" cx="790.5746065158739" cy="733.3883114575517" opacity="0.8045480221580643"></circle><circle r="4.693129118384548" cx="601.7130480990245" cy="455.80932806555336" opacity="0.5235314091879375"></circle><circle r="8.047107299948149" cx="458.19829724213014" cy="319.19177193995614" opacity="0.23098382400062323"></circle><circle r="7.203260012878192" cx="580.535755281804" cy="44.645579432966144" opacity="0.8195805525687356"></circle><circle r="5.6641799376234765" cx="502.28610152695126" cy="305.49210448042237" opacity="0.3616965046527838"></circle><circle r="6.319092364738842" cx="215.24947195357538" cy="90.0538212282244" opacity="0.7296237086553138"></circle><circle r="5.255988907213702" cx="286.8587971466562" cy="68.59103253290131" opacity="0.502501135079786"></circle><circle r="5.391147814736218" cx="559.2244440709492" cy="179.2313913197953" opacity="0.39656311352532947"></circle><circle r="4.564204206523971" cx="98.02477373475291" cy="23.306187086577626" opacity="0.46897902834389715"></circle><circle r="4.4279734938867295" cx="517.547015249438" cy="251.4969933976181" opacity="0.527532649987211"></circle><circle r="6.65785638784827" cx="349.92865349153107" cy="626.561452745629" opacity="0.9081880389497244"></circle><circle r="4.209184118277527" cx="322.5385892373501" cy="550.6956163205924" opacity="0.39594585126262927"></circle><circle r="4.178884192001917" cx="290.5135120375522" cy="220.57783638278056" opacity="0.7357580476662677"></circle><circle r="5.9362866258929134" cx="409.16826701493875" cy="258.8022970423811" opacity="0.5402056942223533"></circle><circle r="5.774139764067705" cx="360.0692342615413" cy="149.96425094573226" opacity="0.8140880859147496"></circle><circle r="6.087070066348746" cx="694.4275859519946" cy="593.4872516741151" opacity="0.9777303271298022"></circle><circle r="7.156361707106662" cx="649.2711270393199" cy="506.09803787167937" opacity="0.7691640710483247"></circle><circle r="3.672826565986799" cx="251.34805971250586" cy="299.51426667079835" opacity="0.3518580774256713"></circle><circle r="3.789312836527162" cx="774.8026942666615" cy="720.7136088453179" opacity="0.6995974814964645"></circle><circle r="3.629187748485183" cx="786.4475979969337" cy="177.57526031170656" opacity="0.6719528510622911"></circle><circle r="6.40536645383692" cx="783.6223878618645" cy="26.865733140948784" opacity="0.3100432300448299"></circle><circle r="5.548339630774287" cx="217.4668357096178" cy="18.36242898688396" opacity="0.1743146348228629"></circle><circle r="5.700873951393131" cx="343.49489204319065" cy="123.08000266260139" opacity="0.7087724641362244"></circle><circle r="6.12669360320362" cx="786.905460484031" cy="135.53473070520084" opacity="0.6321561342481564"></circle><circle r="4.812657804565468" cx="604.4383450604422" cy="734.1084899710763" opacity="0.4958999080065024"></circle><circle r="8.446253317924645" cx="24.679850219695886" cy="374.53683565839566" opacity="0.434265855064651"></circle><circle r="8.785156059164073" cx="367.2648731188018" cy="386.1410232579502" opacity="0.3342839188544538"></circle><circle r="8.620650338552597" cx="239.01129190781617" cy="419.36417825537814" opacity="0.5058359287958633"></circle><circle r="6.784312678892562" cx="13.119118970190414" cy="512.9313065545497" opacity="0.8614596233376276"></circle><circle r="9.462054932652405" cx="508.611861430848" cy="614.5536233668198" opacity="0.1746253318085449"></circle><circle r="6.5444943558751705" cx="536.8209930363182" cy="201.4624298899103" opacity="0.5606387042331312"></circle><circle r="6.044484594782585" cx="159.40048542537306" cy="754.2614603156212" opacity="0.29134466218221006"></circle><circle r="6.472607528623403" cx="238.90862075468266" cy="503.2783810841474" opacity="0.26214974791549916"></circle><circle r="10.56374795843634" cx="325.28432158722256" cy="86.63024331250746" opacity="0.6717905841830342"></circle><circle r="8.092399180746193" cx="378.00112311081807" cy="216.52566608334766" opacity="0.8109367834201555"></circle><circle r="5.128540238187206" cx="508.684555224245" cy="757.3238302112729" opacity="0.9953933019290105"></circle><circle r="3.323243805134753" cx="276.22192058152484" cy="12.637720099560982" opacity="0.5477477523204286"></circle><circle r="7.863879346796903" cx="547.834611016121" cy="525.0538721142038" opacity="0.28120453201486517"></circle><circle r="5.036651119665663" cx="787.9670511503923" cy="689.9513948099911" opacity="0.8989904297996207"></circle><circle r="4.632231313402034" cx="37.67856163233092" cy="620.9256708800368" opacity="0.7400033365616643"></circle><circle r="7.1273619119708975" cx="525.7670235414379" cy="146.7980085008729" opacity="0.7700989708541718"></circle><circle r="4.767214465449397" cx="668.5441100570719" cy="755.8044718014705" opacity="0.3761727261770841"></circle><circle r="2.7884780047217625" cx="686.9965172087055" cy="771.7181610918191" opacity="0.891289697546442"></circle><circle r="3.714258625950484" cx="51.71999688610069" cy="337.05375273224865" opacity="0.6464670084037507"></circle><circle r="8.203722924654551" cx="131.1703663775629" cy="216.92112170334903" opacity="0.2923059313941396"></circle><circle r="4.547781098247331" cx="739.9952334273709" cy="630.0546547141506" opacity="0.47758928425288094"></circle><circle r="6.316684197169783" cx="673.8384024338139" cy="193.48866840485624" opacity="0.36376244434341287"></circle><circle r="5.2754936854746965" cx="754.7657830687292" cy="110.67894419683401" opacity="0.704504672829881"></circle><circle r="3.1580134477844926" cx="519.2886529949175" cy="187.9841992736289" opacity="0.7697658029086333"></circle><circle r="8.530845464371794" cx="751.4017975792665" cy="544.2147752952147" opacity="0.8033568797186433"></circle><circle r="6.579601963671571" cx="645.0589995311384" cy="357.6110553421404" opacity="0.2362753558202539"></circle><circle r="4.5556841589624915" cx="101.28968880564072" cy="239.3124791139629" opacity="0.4397433618256452"></circle><circle r="5.3537516068054" cx="579.0135963262001" cy="485.6323335239061" opacity="0.8631167616033768"></circle><circle r="6.42479357716383" cx="138.3119290547312" cy="480.94729947311265" opacity="0.6608326577963505"></circle><circle r="4.8178163461689465" cx="430.3466300225088" cy="442.3238270402084" opacity="0.8057430556302099"></circle><circle r="5.240365375741882" cx="317.756633314781" cy="483.4790406851713" opacity="0.5893429192570864"></circle><circle r="5.631867670074868" cx="400.4788418057968" cy="129.72508700692953" opacity="0.48404983247661015"></circle><circle r="6.494791204569735" cx="420.8505361972565" cy="31.827073638147382" opacity="0.7308751295932496"></circle><circle r="6.386988094471269" cx="338.25726238943736" cy="356.53470021577135" opacity="0.1200075181318459"></circle><circle r="6.1040815382723945" cx="70.6607794319672" cy="773.014758924826" opacity="0.8795705545596793"></circle><circle r="7.094618617886191" cx="47.70304654208955" cy="519.2216048260054" opacity="0.694498146567591"></circle><circle r="3.79416951502857" cx="764.6511440487748" cy="157.2130488147818" opacity="0.44217522681508414"></circle><circle r="5.760557581511171" cx="256.7673683609799" cy="672.3733228297122" opacity="0.33576759359869324"></circle><circle r="5.296527546108899" cx="537.9022245543429" cy="467.83836054882113" opacity="0.6603195664268777"></circle><circle r="8.016654864351231" cx="181.51584241438076" cy="714.5589231393825" opacity="0.369356596584015"></circle><circle r="5.625868112653574" cx="421.4171031731356" cy="338.8861912291365" opacity="0.7616703364454396"></circle><circle r="3.810699866099276" cx="406.997665254355" cy="626.6840612809194" opacity="0.2202594882742629"></circle><circle r="7.701746184777585" cx="260.2499506425984" cy="177.57792151939523" opacity="0.736373489501354"></circle><circle r="5.288651983862537" cx="597.981617041398" cy="300.23909583444237" opacity="0.9172288830719327"></circle><circle r="6.6569875916828245" cx="456.5941987893711" cy="57.06135991114459" opacity="0.9868980526940321"></circle><circle r="6.191238207321028" cx="201.7287930251083" cy="448.8453089130615" opacity="0.15896427517780684"></circle><circle r="6.225155309676226" cx="56.82966288726648" cy="713.9228597276245" opacity="0.7710033611493705"></circle><circle r="5.655715388008947" cx="425.219642687447" cy="208.5000856858486" opacity="0.5637717143695224"></circle><circle r="4.316768547215317" cx="503.02822822739506" cy="228.44187461117392" opacity="0.7254687204770166"></circle><circle r="5.338435632506965" cx="80.19122774915121" cy="96.60185827558668" opacity="0.9343956088942922"></circle><circle r="5.900181115258798" cx="475.5756354485609" cy="485.62915391572614" opacity="0.5394743630335732"></circle><circle r="5.455673557727887" cx="674.9516481815963" cy="278.57990224741053" opacity="0.4727238443406935"></circle><circle r="5.088035170532724" cx="629.2370100823673" cy="438.6150382336175" opacity="0.8012433974730289"></circle><circle r="2.87772662889578" cx="75.70905980345586" cy="244.31372470381208" opacity="0.5023271816533901"></circle><circle r="5.476547093051256" cx="567.5297452387074" cy="342.62487256775734" opacity="0.1896503240620129"></circle><circle r="4.920807469792267" cx="578.6356421094545" cy="630.7003510161787" opacity="0.7894632833654367"></circle><circle r="6.273005789165445" cx="11.842601025638624" cy="464.04574337817104" opacity="0.17381091467367007"></circle><circle r="3.0316358543261313" cx="657.3583193330696" cy="790.0799162215151" opacity="0.7575147424063935"></circle><circle r="6.375638866395448" cx="624.0417529216917" cy="762.3730185248486" opacity="0.8012230890614603"></circle><circle r="5.889602512206892" cx="146.0285868634177" cy="16.826750808101178" opacity="0.105456258010944"></circle><circle r="7.791944289058611" cx="189.1017288842346" cy="118.51012405231239" opacity="0.5704421746501486"></circle><circle r="7.762756172987295" cx="782.4523195650278" cy="508.7667060817703" opacity="0.7190394517820808"></circle><circle r="6.146356543288879" cx="700.2049264709385" cy="676.2435291155111" opacity="0.18586466227830323"></circle><circle r="4.8120751757611036" cx="507.15515597481135" cy="272.293010515439" opacity="0.6226719681554878"></circle><circle r="5.015177815387458" cx="36.863368069426" cy="248.91687199238558" opacity="0.4858782744783514"></circle><circle r="5.56511909482341" cx="567.6208141262663" cy="378.9981961160537" opacity="0.7009079575867383"></circle><circle r="7.9476320424454325" cx="277.8463888013235" cy="700.3842395621655" opacity="0.10651402320786654"></circle><circle r="5.118935637835515" cx="686.4718481704651" cy="382.25534227807526" opacity="0.4638927810978919"></circle><circle r="6.317208491137297" cx="353.35877556903824" cy="327.5089845821684" opacity="0.6687429250076486"></circle><circle r="5.333490563636281" cx="299.61725479631104" cy="723.8600243852314" opacity="0.3799044781266615"></circle><circle r="4.2504935444947485" cx="147.77903163631015" cy="112.42589620472924" opacity="0.538619403395186"></circle><circle r="5.698673063534118" cx="307.28007194815956" cy="196.92788676941757" opacity="0.46804859169874147"></circle><circle r="5.131090439457294" cx="329.0570733956684" cy="315.59740001319034" opacity="0.6076947301240494"></circle><circle r="8.310150334649164" cx="146.24020494334826" cy="708.5296977218647" opacity="0.9664907293966913"></circle></g></svg>