<svg xmlns="http://www.w3.org/2000/svg" xmlns:xlink="http://www.w3.org/1999/xlink" width="410" zoomAndPan="magnify" viewBox="0 0 307.5 86.249997" height="115" preserveAspectRatio="xMidYMid meet" version="1.0"><defs><g/><clipPath id="f0c461b609"><path d="M 295 28.222656 L 305.371094 28.222656 L 305.371094 44.976562 L 295 44.976562 Z M 295 28.222656 " clip-rule="nonzero"/></clipPath><clipPath id="5da25addd3"><path d="M 13.1875 39 L 21 39 L 21 44 L 13.1875 44 Z M 13.1875 39 " clip-rule="nonzero"/></clipPath><clipPath id="36c7096683"><path d="M 207.5625 56.023438 L 215.5625 56.023438 L 215.5625 58.507812 L 207.5625 58.507812 Z M 207.5625 56.023438 " clip-rule="nonzero"/></clipPath></defs><path fill="#202020" d="M 73.757812 44.097656 C 72.347656 44.097656 71.199219 42.949219 71.199219 41.539062 C 71.199219 40.125 72.347656 38.980469 73.757812 38.980469 C 75.171875 38.980469 76.316406 40.125 76.316406 41.539062 C 76.316406 42.949219 75.171875 44.097656 73.757812 44.097656 Z M 73.757812 36.28125 C 70.855469 36.28125 68.503906 38.636719 68.503906 41.539062 C 68.503906 44.441406 70.855469 46.792969 73.757812 46.792969 C 76.664062 46.792969 79.015625 44.441406 79.015625 41.539062 C 79.015625 38.636719 76.664062 36.28125 73.757812 36.28125 " fill-opacity="1" fill-rule="nonzero"/><path fill="#202020" d="M 160.589844 42.800781 C 159.175781 42.800781 158.03125 41.652344 158.03125 40.238281 C 158.03125 38.828125 159.175781 37.679688 160.589844 37.679688 C 162.003906 37.679688 163.148438 38.828125 163.148438 40.238281 C 163.148438 41.652344 162.003906 42.800781 160.589844 42.800781 Z M 160.589844 34.984375 C 157.6875 34.984375 155.332031 37.335938 155.332031 40.238281 C 155.332031 43.144531 157.6875 45.496094 160.589844 45.496094 C 163.492188 45.496094 165.847656 43.144531 165.847656 40.238281 C 165.847656 37.335938 163.492188 34.984375 160.589844 34.984375 " fill-opacity="1" fill-rule="nonzero"/><path fill="#202020" d="M 232.25 53.363281 C 230.835938 53.363281 229.691406 52.21875 229.691406 50.804688 C 229.691406 49.390625 230.835938 48.246094 232.25 48.246094 C 233.664062 48.246094 234.808594 49.390625 234.808594 50.804688 C 234.808594 52.21875 233.664062 53.363281 232.25 53.363281 Z M 232.25 45.546875 C 229.347656 45.546875 226.992188 47.898438 226.992188 50.804688 C 226.992188 53.707031 229.347656 56.058594 232.25 56.058594 C 235.152344 56.058594 237.507812 53.707031 237.507812 50.804688 C 237.507812 47.898438 235.152344 45.546875 232.25 45.546875 " fill-opacity="1" fill-rule="nonzero"/><g clip-path="url(#f0c461b609)"><path fill="#202020" d="M 304.773438 34.898438 L 298.257812 28.742188 C 297.492188 28.019531 296.289062 28.054688 295.566406 28.816406 C 294.84375 29.582031 294.878906 30.789062 295.644531 31.511719 L 300.773438 36.359375 L 295.925781 41.488281 C 295.207031 42.25 295.238281 43.457031 296.003906 44.179688 C 296.371094 44.527344 296.84375 44.699219 297.3125 44.699219 C 297.816406 44.699219 298.320312 44.5 298.695312 44.105469 L 304.851562 37.585938 C 305.195312 37.222656 305.382812 36.730469 305.371094 36.226562 C 305.355469 35.722656 305.140625 35.242188 304.773438 34.898438 " fill-opacity="1" fill-rule="nonzero"/></g><path fill="#202020" d="M 40.199219 35.667969 L 39.84375 35.671875 C 38.128906 35.699219 36.429688 35.785156 34.792969 35.921875 C 34.164062 35.972656 33.699219 36.527344 33.75 37.15625 C 33.800781 37.75 34.300781 38.203125 34.886719 38.203125 C 34.917969 38.203125 34.953125 38.199219 34.984375 38.199219 C 36.570312 38.066406 38.21875 37.984375 39.878906 37.957031 L 40.226562 37.953125 C 40.859375 37.941406 41.363281 37.425781 41.355469 36.792969 C 41.347656 36.164062 40.8125 35.660156 40.199219 35.667969 " fill-opacity="1" fill-rule="nonzero"/><path fill="#202020" d="M 50.964844 36.125 C 49.070312 35.957031 47.316406 35.839844 45.597656 35.761719 C 44.957031 35.738281 44.429688 36.21875 44.402344 36.851562 C 44.375 37.480469 44.863281 38.015625 45.492188 38.042969 C 47.179688 38.117188 48.902344 38.238281 50.761719 38.402344 C 50.796875 38.40625 50.832031 38.40625 50.863281 38.40625 C 51.449219 38.40625 51.949219 37.960938 52 37.367188 C 52.054688 36.738281 51.59375 36.183594 50.964844 36.125 " fill-opacity="1" fill-rule="nonzero"/><path fill="#202020" d="M 61.609375 37.382812 C 59.585938 37.101562 57.898438 36.882812 56.300781 36.691406 C 55.675781 36.613281 55.105469 37.0625 55.03125 37.6875 C 54.953125 38.316406 55.402344 38.882812 56.027344 38.960938 C 57.613281 39.148438 59.285156 39.367188 61.292969 39.648438 C 61.347656 39.652344 61.398438 39.65625 61.453125 39.65625 C 62.015625 39.65625 62.503906 39.242188 62.582031 38.671875 C 62.667969 38.046875 62.234375 37.46875 61.609375 37.382812 " fill-opacity="1" fill-rule="nonzero"/><g clip-path="url(#5da25addd3)"><path fill="#202020" d="M 18.910156 39.425781 C 17.183594 40.097656 15.515625 40.863281 13.941406 41.710938 C 13.386719 42.011719 13.175781 42.703125 13.476562 43.257812 C 13.683594 43.640625 14.074219 43.859375 14.484375 43.859375 C 14.667969 43.859375 14.851562 43.816406 15.023438 43.722656 C 16.515625 42.921875 18.101562 42.191406 19.738281 41.554688 C 20.324219 41.328125 20.617188 40.664062 20.386719 40.078125 C 20.160156 39.488281 19.496094 39.199219 18.910156 39.425781 " fill-opacity="1" fill-rule="nonzero"/></g><path fill="#202020" d="M 29.410156 36.589844 C 27.585938 36.894531 25.796875 37.28125 24.09375 37.738281 C 23.484375 37.898438 23.121094 38.527344 23.285156 39.136719 C 23.421875 39.648438 23.882812 39.984375 24.386719 39.984375 C 24.488281 39.984375 24.585938 39.972656 24.683594 39.945312 C 26.320312 39.507812 28.035156 39.136719 29.789062 38.84375 C 30.410156 38.742188 30.828125 38.152344 30.726562 37.527344 C 30.621094 36.90625 30.03125 36.488281 29.410156 36.589844 " fill-opacity="1" fill-rule="nonzero"/><path fill="#202020" d="M 130.8125 39.546875 C 129.246094 39.882812 127.582031 40.265625 125.582031 40.757812 C 124.972656 40.910156 124.597656 41.53125 124.746094 42.140625 C 124.878906 42.664062 125.34375 43.011719 125.859375 43.011719 C 125.945312 43.011719 126.039062 43 126.132812 42.976562 C 128.105469 42.492188 129.746094 42.113281 131.289062 41.78125 C 131.90625 41.652344 132.300781 41.042969 132.167969 40.425781 C 132.039062 39.808594 131.433594 39.417969 130.8125 39.546875 " fill-opacity="1" fill-rule="nonzero"/><path fill="#202020" d="M 141.507812 37.9375 C 139.777344 38.0625 138.015625 38.265625 136.117188 38.558594 C 135.496094 38.65625 135.066406 39.242188 135.164062 39.863281 C 135.25 40.425781 135.738281 40.832031 136.292969 40.832031 C 136.351562 40.832031 136.410156 40.828125 136.46875 40.816406 C 138.304688 40.535156 140.007812 40.335938 141.667969 40.214844 C 142.296875 40.171875 142.773438 39.621094 142.726562 38.992188 C 142.679688 38.363281 142.140625 37.890625 141.507812 37.9375 " fill-opacity="1" fill-rule="nonzero"/><path fill="#202020" d="M 120.40625 42.070312 C 119.335938 42.34375 118.261719 42.613281 117.195312 42.878906 C 116.550781 43.039062 115.902344 43.199219 115.253906 43.351562 C 114.636719 43.496094 114.257812 44.109375 114.402344 44.726562 C 114.527344 45.25 114.996094 45.605469 115.515625 45.605469 C 115.601562 45.605469 115.691406 45.59375 115.777344 45.574219 C 116.4375 45.417969 117.09375 45.257812 117.746094 45.097656 C 118.820312 44.832031 119.894531 44.558594 120.972656 44.285156 C 121.582031 44.128906 121.949219 43.503906 121.796875 42.894531 C 121.640625 42.28125 121.019531 41.914062 120.40625 42.070312 " fill-opacity="1" fill-rule="nonzero"/><path fill="#202020" d="M 151.085938 38.175781 C 149.75 37.996094 148.359375 37.878906 146.957031 37.828125 C 146.324219 37.800781 145.796875 38.296875 145.773438 38.929688 C 145.75 39.558594 146.242188 40.089844 146.875 40.109375 C 148.203125 40.160156 149.515625 40.269531 150.78125 40.441406 C 150.832031 40.445312 150.882812 40.453125 150.933594 40.453125 C 151.5 40.453125 151.988281 40.035156 152.066406 39.460938 C 152.148438 38.835938 151.710938 38.261719 151.085938 38.175781 " fill-opacity="1" fill-rule="nonzero"/><path fill="#202020" d="M 99.683594 45.71875 C 97.890625 45.785156 96.140625 45.753906 94.488281 45.625 C 93.855469 45.574219 93.308594 46.046875 93.257812 46.675781 C 93.210938 47.304688 93.679688 47.855469 94.308594 47.902344 C 95.460938 47.992188 96.660156 48.039062 97.871094 48.039062 C 98.492188 48.039062 99.132812 48.027344 99.769531 48.003906 C 100.398438 47.980469 100.890625 47.449219 100.867188 46.820312 C 100.84375 46.1875 100.300781 45.691406 99.683594 45.71875 " fill-opacity="1" fill-rule="nonzero"/><path fill="#202020" d="M 89.378906 44.867188 C 87.679688 44.484375 86.03125 43.96875 84.480469 43.335938 C 83.894531 43.097656 83.226562 43.375 82.988281 43.960938 C 82.75 44.542969 83.03125 45.210938 83.613281 45.449219 C 85.28125 46.132812 87.054688 46.6875 88.878906 47.097656 C 88.964844 47.117188 89.046875 47.125 89.128906 47.125 C 89.652344 47.125 90.125 46.765625 90.242188 46.234375 C 90.382812 45.617188 89.996094 45.007812 89.378906 44.867188 " fill-opacity="1" fill-rule="nonzero"/><path fill="#202020" d="M 110.085938 44.460938 C 108.25 44.808594 106.550781 45.082031 104.894531 45.289062 C 104.269531 45.367188 103.824219 45.9375 103.902344 46.5625 C 103.976562 47.140625 104.46875 47.566406 105.035156 47.566406 C 105.082031 47.566406 105.128906 47.5625 105.179688 47.554688 C 106.882812 47.34375 108.628906 47.066406 110.515625 46.707031 C 111.132812 46.585938 111.542969 45.988281 111.421875 45.371094 C 111.304688 44.75 110.707031 44.339844 110.085938 44.460938 " fill-opacity="1" fill-rule="nonzero"/><path fill="#202020" d="M 174.761719 43.003906 C 173.191406 42.515625 171.480469 42.054688 169.535156 41.605469 C 168.921875 41.460938 168.304688 41.84375 168.164062 42.457031 C 168.019531 43.074219 168.402344 43.6875 169.019531 43.828125 C 170.910156 44.269531 172.5625 44.710938 174.078125 45.1875 C 174.191406 45.222656 174.308594 45.238281 174.421875 45.238281 C 174.90625 45.238281 175.359375 44.925781 175.511719 44.4375 C 175.699219 43.835938 175.363281 43.195312 174.761719 43.003906 " fill-opacity="1" fill-rule="nonzero"/><path fill="#202020" d="M 204.070312 55.441406 C 202.511719 55.074219 200.894531 54.566406 199.136719 53.890625 C 198.546875 53.664062 197.886719 53.957031 197.664062 54.546875 C 197.4375 55.136719 197.730469 55.796875 198.316406 56.023438 C 200.175781 56.738281 201.882812 57.273438 203.546875 57.667969 C 203.636719 57.6875 203.722656 57.699219 203.8125 57.699219 C 204.328125 57.699219 204.796875 57.34375 204.921875 56.816406 C 205.066406 56.203125 204.683594 55.585938 204.070312 55.441406 " fill-opacity="1" fill-rule="nonzero"/><path fill="#202020" d="M 224.101562 53.203125 C 222.574219 53.945312 220.964844 54.558594 219.3125 55.035156 C 218.703125 55.207031 218.355469 55.84375 218.527344 56.449219 C 218.671875 56.949219 219.128906 57.277344 219.628906 57.277344 C 219.730469 57.277344 219.835938 57.261719 219.941406 57.230469 C 221.71875 56.71875 223.453125 56.058594 225.101562 55.257812 C 225.667969 54.984375 225.90625 54.300781 225.628906 53.734375 C 225.355469 53.167969 224.671875 52.929688 224.101562 53.203125 " fill-opacity="1" fill-rule="nonzero"/><g clip-path="url(#36c7096683)"><path fill="#202020" d="M 214.277344 56.03125 C 213.144531 56.160156 211.996094 56.226562 210.863281 56.226562 C 210.859375 56.226562 210.859375 56.226562 210.855469 56.226562 C 210.289062 56.226562 209.714844 56.207031 209.144531 56.175781 C 208.511719 56.136719 207.976562 56.621094 207.941406 57.25 C 207.902344 57.878906 208.386719 58.421875 209.015625 58.457031 C 209.625 58.492188 210.246094 58.507812 210.855469 58.507812 C 210.859375 58.507812 210.859375 58.507812 210.863281 58.507812 C 212.082031 58.507812 213.316406 58.441406 214.53125 58.304688 C 215.15625 58.234375 215.609375 57.667969 215.539062 57.039062 C 215.46875 56.414062 214.902344 55.960938 214.277344 56.03125 " fill-opacity="1" fill-rule="nonzero"/></g><path fill="#202020" d="M 194.320312 51.804688 C 193.363281 51.359375 192.410156 50.898438 191.457031 50.4375 C 190.808594 50.128906 190.164062 49.816406 189.515625 49.507812 C 188.945312 49.238281 188.265625 49.480469 187.996094 50.050781 C 187.722656 50.621094 187.964844 51.300781 188.535156 51.570312 C 189.179688 51.878906 189.820312 52.1875 190.464844 52.5 C 191.425781 52.960938 192.386719 53.421875 193.351562 53.875 C 193.507812 53.949219 193.671875 53.984375 193.835938 53.984375 C 194.265625 53.984375 194.675781 53.742188 194.871094 53.324219 C 195.136719 52.753906 194.890625 52.074219 194.320312 51.804688 " fill-opacity="1" fill-rule="nonzero"/><path fill="#202020" d="M 184.699219 47.257812 C 184.222656 47.023438 183.765625 46.796875 183.3125 46.574219 C 182.160156 46 181.070312 45.460938 179.867188 44.925781 C 179.289062 44.667969 178.613281 44.929688 178.359375 45.503906 C 178.101562 46.082031 178.363281 46.757812 178.9375 47.011719 C 180.097656 47.527344 181.167969 48.058594 182.300781 48.621094 C 182.753906 48.847656 183.21875 49.078125 183.695312 49.308594 C 183.859375 49.390625 184.03125 49.425781 184.199219 49.425781 C 184.621094 49.425781 185.027344 49.191406 185.222656 48.785156 C 185.5 48.21875 185.265625 47.535156 184.699219 47.257812 " fill-opacity="1" fill-rule="nonzero"/><path fill="#202020" d="M 254.089844 40.613281 C 252.550781 41.183594 250.960938 41.8125 249.097656 42.589844 C 248.515625 42.832031 248.238281 43.5 248.480469 44.085938 C 248.664062 44.523438 249.089844 44.789062 249.539062 44.789062 C 249.683594 44.789062 249.832031 44.757812 249.972656 44.699219 C 251.8125 43.933594 253.375 43.316406 254.886719 42.753906 C 255.480469 42.535156 255.78125 41.875 255.5625 41.285156 C 255.339844 40.691406 254.679688 40.390625 254.089844 40.613281 " fill-opacity="1" fill-rule="nonzero"/><path fill="#202020" d="M 285.800781 34.988281 C 285.796875 34.988281 285.789062 34.988281 285.78125 34.988281 C 283.949219 35.015625 282.136719 35.085938 280.410156 35.183594 C 279.777344 35.222656 279.296875 35.761719 279.335938 36.390625 C 279.371094 37 279.875 37.46875 280.476562 37.46875 C 280.496094 37.46875 280.519531 37.46875 280.542969 37.464844 C 282.242188 37.367188 284.015625 37.300781 285.820312 37.273438 C 286.449219 37.261719 286.953125 36.742188 286.945312 36.113281 C 286.933594 35.488281 286.421875 34.988281 285.800781 34.988281 " fill-opacity="1" fill-rule="nonzero"/><path fill="#202020" d="M 244.183594 44.683594 L 244.144531 44.699219 C 242.574219 45.375 240.953125 46.074219 239.292969 46.769531 C 238.710938 47.011719 238.4375 47.679688 238.679688 48.261719 C 238.863281 48.703125 239.285156 48.964844 239.734375 48.964844 C 239.882812 48.964844 240.03125 48.9375 240.171875 48.878906 C 241.84375 48.179688 243.472656 47.476562 245.050781 46.800781 L 245.085938 46.78125 C 245.667969 46.53125 245.933594 45.859375 245.683594 45.28125 C 245.433594 44.703125 244.761719 44.433594 244.183594 44.683594 " fill-opacity="1" fill-rule="nonzero"/><path fill="#202020" d="M 296.585938 36.332031 C 296.613281 35.703125 296.125 35.167969 295.496094 35.140625 C 294.015625 35.074219 292.554688 35.027344 291.152344 35 C 291.144531 35 291.136719 35 291.132812 35 C 290.507812 35 290 35.496094 289.988281 36.121094 C 289.976562 36.75 290.476562 37.273438 291.109375 37.285156 C 292.492188 37.3125 293.933594 37.355469 295.394531 37.421875 C 295.410156 37.421875 295.425781 37.421875 295.445312 37.421875 C 296.050781 37.421875 296.558594 36.945312 296.585938 36.332031 " fill-opacity="1" fill-rule="nonzero"/><path fill="#202020" d="M 275.039062 35.632812 C 273.226562 35.832031 271.425781 36.082031 269.699219 36.375 C 269.078125 36.480469 268.65625 37.070312 268.761719 37.691406 C 268.859375 38.25 269.34375 38.644531 269.886719 38.644531 C 269.953125 38.644531 270.015625 38.636719 270.082031 38.628906 C 271.765625 38.34375 273.519531 38.097656 275.289062 37.90625 C 275.917969 37.835938 276.371094 37.269531 276.300781 36.644531 C 276.234375 36.015625 275.667969 35.5625 275.039062 35.632812 " fill-opacity="1" fill-rule="nonzero"/><path fill="#202020" d="M 264.40625 37.449219 C 262.652344 37.867188 260.945312 38.328125 259.195312 38.871094 C 258.59375 39.054688 258.253906 39.695312 258.4375 40.300781 C 258.589844 40.789062 259.042969 41.105469 259.53125 41.105469 C 259.644531 41.105469 259.753906 41.089844 259.867188 41.054688 C 261.570312 40.527344 263.230469 40.078125 264.933594 39.671875 C 265.546875 39.527344 265.929688 38.910156 265.78125 38.296875 C 265.636719 37.683594 265.023438 37.304688 264.40625 37.449219 " fill-opacity="1" fill-rule="nonzero"/><g fill="#202020" fill-opacity="1"><g transform="translate(10.511951, 64.441608)"><g><path d="M 5.328125 -3.65625 C 5.015625 -3.65625 4.753906 -3.695312 4.546875 -3.78125 C 4.335938 -3.863281 4.160156 -3.960938 4.015625 -4.078125 C 3.867188 -4.191406 3.722656 -4.289062 3.578125 -4.375 C 3.429688 -4.46875 3.257812 -4.515625 3.0625 -4.515625 C 2.613281 -4.515625 2.378906 -4.242188 2.359375 -3.703125 L 1.21875 -3.703125 C 1.226562 -4.328125 1.378906 -4.800781 1.671875 -5.125 C 1.960938 -5.457031 2.394531 -5.625 2.96875 -5.625 C 3.269531 -5.625 3.519531 -5.578125 3.71875 -5.484375 C 3.914062 -5.398438 4.085938 -5.300781 4.234375 -5.1875 C 4.390625 -5.070312 4.539062 -4.972656 4.6875 -4.890625 C 4.832031 -4.804688 5.003906 -4.765625 5.203125 -4.765625 C 5.421875 -4.765625 5.582031 -4.828125 5.6875 -4.953125 C 5.800781 -5.078125 5.859375 -5.28125 5.859375 -5.5625 L 7.015625 -5.5625 C 7.015625 -4.289062 6.453125 -3.65625 5.328125 -3.65625 Z M 5.328125 -3.65625 "/></g></g></g><g fill="#202020" fill-opacity="1"><g transform="translate(18.737691, 64.441608)"><g><path d="M 2.703125 0 L 2.703125 -6.90625 L 0.5 -6.90625 L 0.5 -8.03125 L 1.5625 -8.03125 C 1.976562 -8.03125 2.269531 -8.085938 2.4375 -8.203125 C 2.613281 -8.316406 2.738281 -8.539062 2.8125 -8.875 L 2.96875 -9.578125 L 3.90625 -9.578125 L 3.90625 0 Z M 2.703125 0 "/></g></g></g><g fill="#202020" fill-opacity="1"><g transform="translate(24.039336, 64.441608)"><g><path d="M 4.78125 0.171875 C 3.988281 0.171875 3.300781 -0.0234375 2.71875 -0.421875 C 2.144531 -0.828125 1.703125 -1.398438 1.390625 -2.140625 C 1.078125 -2.878906 0.921875 -3.757812 0.921875 -4.78125 C 0.921875 -5.800781 1.078125 -6.679688 1.390625 -7.421875 C 1.703125 -8.171875 2.144531 -8.742188 2.71875 -9.140625 C 3.300781 -9.546875 3.988281 -9.75 4.78125 -9.75 C 5.582031 -9.75 6.269531 -9.546875 6.84375 -9.140625 C 7.425781 -8.742188 7.867188 -8.171875 8.171875 -7.421875 C 8.484375 -6.679688 8.640625 -5.800781 8.640625 -4.78125 C 8.640625 -3.757812 8.484375 -2.878906 8.171875 -2.140625 C 7.867188 -1.398438 7.425781 -0.828125 6.84375 -0.421875 C 6.269531 -0.0234375 5.582031 0.171875 4.78125 0.171875 Z M 2.109375 -4.78125 C 2.109375 -3.601562 2.347656 -2.675781 2.828125 -2 C 3.304688 -1.320312 3.957031 -0.984375 4.78125 -0.984375 C 5.613281 -0.984375 6.265625 -1.320312 6.734375 -2 C 7.210938 -2.675781 7.453125 -3.601562 7.453125 -4.78125 C 7.453125 -5.957031 7.210938 -6.882812 6.734375 -7.5625 C 6.265625 -8.25 5.613281 -8.59375 4.78125 -8.59375 C 3.957031 -8.59375 3.304688 -8.25 2.828125 -7.5625 C 2.347656 -6.882812 2.109375 -5.957031 2.109375 -4.78125 Z M 2.109375 -4.78125 "/></g></g></g><g fill="#202020" fill-opacity="1"><g transform="translate(33.59049, 64.441608)"><g><path d="M 0.234375 0 L 4.171875 -9.578125 L 5.296875 -9.578125 L 9.234375 0 L 7.953125 0 L 7.0625 -2.171875 L 2.390625 -2.171875 L 1.515625 0 Z M 2.859375 -3.296875 L 6.609375 -3.296875 L 4.734375 -7.890625 Z M 2.859375 -3.296875 "/></g></g></g><g fill="#202020" fill-opacity="1"><g transform="translate(43.045992, 64.441608)"><g><path d="M 1.390625 0 L 1.390625 -9.578125 L 2.515625 -9.578125 L 6.28125 -3.890625 L 10.015625 -9.578125 L 11.125 -9.578125 L 11.125 0 L 9.921875 0 L 9.921875 -7.3125 L 6.75 -2.546875 L 5.765625 -2.546875 L 2.59375 -7.328125 L 2.59375 0 Z M 1.390625 0 "/></g></g></g><g fill="#202020" fill-opacity="1"><g transform="translate(8.875473, 79.089803)"><g><path d="M 1.15625 0 L 1.15625 -2.734375 L 0.125 -2.734375 L 0.125 -3.46875 L 1.15625 -3.46875 L 1.15625 -6.140625 L 3.265625 -6.140625 C 3.898438 -6.140625 4.453125 -6.007812 4.921875 -5.75 C 5.398438 -5.488281 5.769531 -5.128906 6.03125 -4.671875 C 6.289062 -4.210938 6.421875 -3.679688 6.421875 -3.078125 C 6.421875 -2.460938 6.289062 -1.921875 6.03125 -1.453125 C 5.769531 -0.992188 5.398438 -0.632812 4.921875 -0.375 C 4.453125 -0.125 3.898438 0 3.265625 0 Z M 1.921875 -0.734375 L 3.265625 -0.734375 C 3.734375 -0.734375 4.144531 -0.832031 4.5 -1.03125 C 4.851562 -1.226562 5.128906 -1.5 5.328125 -1.84375 C 5.523438 -2.195312 5.625 -2.609375 5.625 -3.078125 C 5.625 -3.546875 5.519531 -3.953125 5.3125 -4.296875 C 5.113281 -4.648438 4.835938 -4.921875 4.484375 -5.109375 C 4.128906 -5.304688 3.710938 -5.40625 3.234375 -5.40625 L 1.921875 -5.40625 L 1.921875 -3.453125 L 3.703125 -3.453125 L 3.703125 -2.734375 L 1.921875 -2.734375 Z M 1.921875 -0.734375 "/></g></g></g><g fill="#202020" fill-opacity="1"><g transform="translate(15.809975, 79.089803)"><g><path d="M 2.875 0.109375 C 2.394531 0.109375 1.972656 0.0078125 1.609375 -0.1875 C 1.253906 -0.394531 0.972656 -0.679688 0.765625 -1.046875 C 0.554688 -1.410156 0.453125 -1.820312 0.453125 -2.28125 C 0.453125 -2.75 0.554688 -3.160156 0.765625 -3.515625 C 0.972656 -3.878906 1.253906 -4.160156 1.609375 -4.359375 C 1.972656 -4.566406 2.394531 -4.671875 2.875 -4.671875 C 3.34375 -4.671875 3.757812 -4.566406 4.125 -4.359375 C 4.488281 -4.160156 4.769531 -3.878906 4.96875 -3.515625 C 5.175781 -3.160156 5.28125 -2.75 5.28125 -2.28125 C 5.28125 -1.820312 5.175781 -1.410156 4.96875 -1.046875 C 4.769531 -0.679688 4.488281 -0.394531 4.125 -0.1875 C 3.757812 0.0078125 3.34375 0.109375 2.875 0.109375 Z M 1.1875 -2.28125 C 1.1875 -1.945312 1.257812 -1.648438 1.40625 -1.390625 C 1.550781 -1.140625 1.75 -0.941406 2 -0.796875 C 2.25 -0.660156 2.539062 -0.59375 2.875 -0.59375 C 3.195312 -0.59375 3.484375 -0.660156 3.734375 -0.796875 C 3.992188 -0.941406 4.191406 -1.140625 4.328125 -1.390625 C 4.472656 -1.648438 4.546875 -1.945312 4.546875 -2.28125 C 4.546875 -2.613281 4.472656 -2.90625 4.328125 -3.15625 C 4.191406 -3.40625 3.992188 -3.601562 3.734375 -3.75 C 3.484375 -3.894531 3.195312 -3.96875 2.875 -3.96875 C 2.539062 -3.96875 2.25 -3.894531 2 -3.75 C 1.75 -3.601562 1.550781 -3.40625 1.40625 -3.15625 C 1.257812 -2.90625 1.1875 -2.613281 1.1875 -2.28125 Z M 2.453125 -5.28125 L 2.953125 -6.625 L 3.734375 -6.625 L 3.140625 -5.28125 Z M 2.453125 -5.28125 "/></g></g></g><g fill="#202020" fill-opacity="1"><g transform="translate(21.557965, 79.089803)"><g><path d="M 0.8125 0 L 0.8125 -4.5625 L 1.421875 -4.5625 L 1.5 -3.890625 C 1.695312 -4.160156 1.9375 -4.359375 2.21875 -4.484375 C 2.507812 -4.609375 2.804688 -4.671875 3.109375 -4.671875 C 3.710938 -4.671875 4.1875 -4.476562 4.53125 -4.09375 C 4.875 -3.707031 5.046875 -3.1875 5.046875 -2.53125 L 5.046875 0 L 4.296875 0 L 4.296875 -2.46875 C 4.296875 -2.925781 4.179688 -3.289062 3.953125 -3.5625 C 3.722656 -3.832031 3.410156 -3.96875 3.015625 -3.96875 C 2.734375 -3.96875 2.484375 -3.898438 2.265625 -3.765625 C 2.046875 -3.628906 1.867188 -3.429688 1.734375 -3.171875 C 1.609375 -2.921875 1.546875 -2.628906 1.546875 -2.296875 L 1.546875 0 Z M 0.8125 0 "/></g></g></g><g fill="#202020" fill-opacity="1"><g transform="translate(27.332319, 79.089803)"><g/></g></g><g fill="#202020" fill-opacity="1"><g transform="translate(29.511991, 79.089803)"><g><path d="M 0.8125 0 L 0.8125 -6.5 L 1.546875 -6.5 L 1.546875 -2.65625 L 2.125 -2.65625 C 2.488281 -2.65625 2.769531 -2.71875 2.96875 -2.84375 C 3.175781 -2.96875 3.34375 -3.210938 3.46875 -3.578125 L 3.8125 -4.5625 L 4.59375 -4.5625 L 4.140625 -3.3125 C 3.953125 -2.8125 3.703125 -2.457031 3.390625 -2.25 L 4.8125 0 L 3.9375 0 L 2.671875 -2.015625 C 2.585938 -1.992188 2.492188 -1.976562 2.390625 -1.96875 C 2.296875 -1.96875 2.195312 -1.96875 2.09375 -1.96875 L 1.546875 -1.96875 L 1.546875 0 Z M 0.8125 0 "/></g></g></g><g fill="#202020" fill-opacity="1"><g transform="translate(34.635965, 79.089803)"><g><path d="M 0.8125 0 L 0.8125 -6.5 L 1.546875 -6.5 L 1.546875 -3.953125 C 1.753906 -4.203125 1.992188 -4.382812 2.265625 -4.5 C 2.535156 -4.613281 2.820312 -4.671875 3.125 -4.671875 C 3.71875 -4.671875 4.1875 -4.476562 4.53125 -4.09375 C 4.875 -3.71875 5.046875 -3.207031 5.046875 -2.5625 L 5.046875 0 L 4.296875 0 L 4.296875 -2.5 C 4.296875 -2.945312 4.179688 -3.300781 3.953125 -3.5625 C 3.734375 -3.832031 3.421875 -3.96875 3.015625 -3.96875 C 2.585938 -3.96875 2.234375 -3.816406 1.953125 -3.515625 C 1.679688 -3.222656 1.546875 -2.828125 1.546875 -2.328125 L 1.546875 0 Z M 0.8125 0 "/></g></g></g><g fill="#202020" fill-opacity="1"><g transform="translate(40.410318, 79.089803)"><g><path d="M 2.3125 0.0625 C 1.757812 0.0625 1.328125 -0.0546875 1.015625 -0.296875 C 0.703125 -0.546875 0.546875 -0.882812 0.546875 -1.3125 C 0.546875 -1.726562 0.6875 -2.054688 0.96875 -2.296875 C 1.257812 -2.546875 1.644531 -2.671875 2.125 -2.671875 L 3.984375 -2.671875 L 3.984375 -2.84375 C 3.984375 -3.195312 3.867188 -3.472656 3.640625 -3.671875 C 3.421875 -3.878906 3.117188 -3.984375 2.734375 -3.984375 C 2.441406 -3.984375 2.1875 -3.914062 1.96875 -3.78125 C 1.757812 -3.65625 1.613281 -3.484375 1.53125 -3.265625 L 0.796875 -3.265625 C 0.890625 -3.703125 1.109375 -4.046875 1.453125 -4.296875 C 1.804688 -4.546875 2.234375 -4.671875 2.734375 -4.671875 C 3.128906 -4.671875 3.472656 -4.59375 3.765625 -4.4375 C 4.066406 -4.289062 4.300781 -4.082031 4.46875 -3.8125 C 4.632812 -3.550781 4.71875 -3.242188 4.71875 -2.890625 L 4.71875 0 L 4.125 0 L 4.046875 -0.625 C 3.628906 -0.164062 3.050781 0.0625 2.3125 0.0625 Z M 1.296875 -1.328125 C 1.296875 -1.109375 1.390625 -0.929688 1.578125 -0.796875 C 1.765625 -0.660156 2.015625 -0.59375 2.328125 -0.59375 C 2.648438 -0.59375 2.929688 -0.648438 3.171875 -0.765625 C 3.421875 -0.890625 3.617188 -1.0625 3.765625 -1.28125 C 3.910156 -1.5 3.988281 -1.75 4 -2.03125 L 2.15625 -2.03125 C 1.90625 -2.03125 1.695312 -1.96875 1.53125 -1.84375 C 1.375 -1.71875 1.296875 -1.546875 1.296875 -1.328125 Z M 2.328125 -5.28125 L 2.8125 -6.625 L 3.609375 -6.625 L 3.015625 -5.28125 Z M 2.328125 -5.28125 "/></g></g></g><g fill="#202020" fill-opacity="1"><g transform="translate(45.859482, 79.089803)"><g><path d="M 2.796875 0.109375 C 2.335938 0.109375 1.929688 0.0078125 1.578125 -0.1875 C 1.234375 -0.394531 0.957031 -0.679688 0.75 -1.046875 C 0.550781 -1.410156 0.453125 -1.820312 0.453125 -2.28125 C 0.453125 -2.75 0.550781 -3.160156 0.75 -3.515625 C 0.957031 -3.878906 1.234375 -4.160156 1.578125 -4.359375 C 1.929688 -4.566406 2.335938 -4.671875 2.796875 -4.671875 C 3.179688 -4.671875 3.53125 -4.597656 3.84375 -4.453125 C 4.164062 -4.304688 4.429688 -4.109375 4.640625 -3.859375 C 4.859375 -3.609375 5.003906 -3.304688 5.078125 -2.953125 L 4.34375 -2.953125 C 4.207031 -3.273438 4 -3.523438 3.71875 -3.703125 C 3.445312 -3.878906 3.140625 -3.96875 2.796875 -3.96875 C 2.484375 -3.96875 2.207031 -3.894531 1.96875 -3.75 C 1.726562 -3.601562 1.535156 -3.40625 1.390625 -3.15625 C 1.253906 -2.90625 1.1875 -2.613281 1.1875 -2.28125 C 1.1875 -1.957031 1.253906 -1.664062 1.390625 -1.40625 C 1.535156 -1.15625 1.726562 -0.957031 1.96875 -0.8125 C 2.207031 -0.664062 2.484375 -0.59375 2.796875 -0.59375 C 3.171875 -0.59375 3.492188 -0.691406 3.765625 -0.890625 C 4.046875 -1.085938 4.242188 -1.347656 4.359375 -1.671875 L 5.140625 -1.671875 C 4.984375 -1.128906 4.695312 -0.695312 4.28125 -0.375 C 3.863281 -0.0507812 3.367188 0.109375 2.796875 0.109375 Z M 2.796875 0.109375 "/></g></g></g><g fill="#202020" fill-opacity="1"><g transform="translate(51.43169, 79.089803)"><g><path d="M 0.8125 0 L 0.8125 -6.5 L 1.546875 -6.5 L 1.546875 -3.953125 C 1.753906 -4.203125 1.992188 -4.382812 2.265625 -4.5 C 2.535156 -4.613281 2.820312 -4.671875 3.125 -4.671875 C 3.71875 -4.671875 4.1875 -4.476562 4.53125 -4.09375 C 4.875 -3.71875 5.046875 -3.207031 5.046875 -2.5625 L 5.046875 0 L 4.296875 0 L 4.296875 -2.5 C 4.296875 -2.945312 4.179688 -3.300781 3.953125 -3.5625 C 3.734375 -3.832031 3.421875 -3.96875 3.015625 -3.96875 C 2.585938 -3.96875 2.234375 -3.816406 1.953125 -3.515625 C 1.679688 -3.222656 1.546875 -2.828125 1.546875 -2.328125 L 1.546875 0 Z M 0.8125 0 "/></g></g></g><g fill="#202020" fill-opacity="1"><g transform="translate(51.345459, 15.91771)"><g><path d="M 2.703125 0 L 2.703125 -6.90625 L 0.5 -6.90625 L 0.5 -8.03125 L 1.5625 -8.03125 C 1.976562 -8.03125 2.269531 -8.085938 2.4375 -8.203125 C 2.613281 -8.316406 2.738281 -8.539062 2.8125 -8.875 L 2.96875 -9.578125 L 3.90625 -9.578125 L 3.90625 0 Z M 2.703125 0 "/></g></g></g><g fill="#202020" fill-opacity="1"><g transform="translate(56.647104, 15.91771)"><g><path d="M 4.78125 0.171875 C 3.988281 0.171875 3.300781 -0.0234375 2.71875 -0.421875 C 2.144531 -0.828125 1.703125 -1.398438 1.390625 -2.140625 C 1.078125 -2.878906 0.921875 -3.757812 0.921875 -4.78125 C 0.921875 -5.800781 1.078125 -6.679688 1.390625 -7.421875 C 1.703125 -8.171875 2.144531 -8.742188 2.71875 -9.140625 C 3.300781 -9.546875 3.988281 -9.75 4.78125 -9.75 C 5.582031 -9.75 6.269531 -9.546875 6.84375 -9.140625 C 7.425781 -8.742188 7.867188 -8.171875 8.171875 -7.421875 C 8.484375 -6.679688 8.640625 -5.800781 8.640625 -4.78125 C 8.640625 -3.757812 8.484375 -2.878906 8.171875 -2.140625 C 7.867188 -1.398438 7.425781 -0.828125 6.84375 -0.421875 C 6.269531 -0.0234375 5.582031 0.171875 4.78125 0.171875 Z M 2.109375 -4.78125 C 2.109375 -3.601562 2.347656 -2.675781 2.828125 -2 C 3.304688 -1.320312 3.957031 -0.984375 4.78125 -0.984375 C 5.613281 -0.984375 6.265625 -1.320312 6.734375 -2 C 7.210938 -2.675781 7.453125 -3.601562 7.453125 -4.78125 C 7.453125 -5.957031 7.210938 -6.882812 6.734375 -7.5625 C 6.265625 -8.25 5.613281 -8.59375 4.78125 -8.59375 C 3.957031 -8.59375 3.304688 -8.25 2.828125 -7.5625 C 2.347656 -6.882812 2.109375 -5.957031 2.109375 -4.78125 Z M 2.109375 -4.78125 "/></g></g></g><g fill="#202020" fill-opacity="1"><g transform="translate(66.198258, 15.91771)"><g><path d="M 1.75 0.109375 C 1.476562 0.109375 1.253906 0.0234375 1.078125 -0.140625 C 0.910156 -0.316406 0.828125 -0.535156 0.828125 -0.796875 C 0.828125 -1.054688 0.910156 -1.269531 1.078125 -1.4375 C 1.253906 -1.601562 1.476562 -1.6875 1.75 -1.6875 C 2.03125 -1.6875 2.253906 -1.601562 2.421875 -1.4375 C 2.597656 -1.269531 2.6875 -1.054688 2.6875 -0.796875 C 2.6875 -0.535156 2.597656 -0.316406 2.421875 -0.140625 C 2.253906 0.0234375 2.03125 0.109375 1.75 0.109375 Z M 0.828125 -6.3125 C 0.828125 -6.582031 0.910156 -6.796875 1.078125 -6.953125 C 1.253906 -7.117188 1.476562 -7.203125 1.75 -7.203125 C 2.03125 -7.203125 2.253906 -7.117188 2.421875 -6.953125 C 2.597656 -6.796875 2.6875 -6.582031 2.6875 -6.3125 C 2.6875 -6.0625 2.597656 -5.847656 2.421875 -5.671875 C 2.253906 -5.503906 2.03125 -5.421875 1.75 -5.421875 C 1.476562 -5.421875 1.253906 -5.503906 1.078125 -5.671875 C 0.910156 -5.847656 0.828125 -6.0625 0.828125 -6.3125 Z M 0.828125 -6.3125 "/></g></g></g><g fill="#202020" fill-opacity="1"><g transform="translate(69.709916, 15.91771)"><g><path d="M 4.078125 0.171875 C 3.441406 0.171875 2.882812 0.0507812 2.40625 -0.1875 C 1.925781 -0.425781 1.546875 -0.765625 1.265625 -1.203125 C 0.992188 -1.648438 0.847656 -2.171875 0.828125 -2.765625 L 2 -2.765625 C 2.03125 -2.222656 2.234375 -1.789062 2.609375 -1.46875 C 2.992188 -1.144531 3.484375 -0.984375 4.078125 -0.984375 C 4.703125 -0.984375 5.203125 -1.15625 5.578125 -1.5 C 5.953125 -1.851562 6.140625 -2.320312 6.140625 -2.90625 C 6.140625 -3.476562 5.953125 -3.929688 5.578125 -4.265625 C 5.203125 -4.609375 4.707031 -4.78125 4.09375 -4.78125 L 2.53125 -4.78125 L 2.53125 -5.640625 L 5.21875 -8.453125 L 0.984375 -8.453125 L 0.984375 -9.578125 L 7.015625 -9.578125 L 7.015625 -8.703125 L 4.3125 -5.875 C 4.914062 -5.851562 5.445312 -5.710938 5.90625 -5.453125 C 6.363281 -5.191406 6.71875 -4.835938 6.96875 -4.390625 C 7.21875 -3.953125 7.34375 -3.441406 7.34375 -2.859375 C 7.34375 -2.253906 7.203125 -1.722656 6.921875 -1.265625 C 6.648438 -0.816406 6.269531 -0.460938 5.78125 -0.203125 C 5.300781 0.046875 4.734375 0.171875 4.078125 0.171875 Z M 4.078125 0.171875 "/></g></g></g><g fill="#202020" fill-opacity="1"><g transform="translate(77.976649, 15.91771)"><g><path d="M 4.78125 0.171875 C 3.988281 0.171875 3.300781 -0.0234375 2.71875 -0.421875 C 2.144531 -0.828125 1.703125 -1.398438 1.390625 -2.140625 C 1.078125 -2.878906 0.921875 -3.757812 0.921875 -4.78125 C 0.921875 -5.800781 1.078125 -6.679688 1.390625 -7.421875 C 1.703125 -8.171875 2.144531 -8.742188 2.71875 -9.140625 C 3.300781 -9.546875 3.988281 -9.75 4.78125 -9.75 C 5.582031 -9.75 6.269531 -9.546875 6.84375 -9.140625 C 7.425781 -8.742188 7.867188 -8.171875 8.171875 -7.421875 C 8.484375 -6.679688 8.640625 -5.800781 8.640625 -4.78125 C 8.640625 -3.757812 8.484375 -2.878906 8.171875 -2.140625 C 7.867188 -1.398438 7.425781 -0.828125 6.84375 -0.421875 C 6.269531 -0.0234375 5.582031 0.171875 4.78125 0.171875 Z M 2.109375 -4.78125 C 2.109375 -3.601562 2.347656 -2.675781 2.828125 -2 C 3.304688 -1.320312 3.957031 -0.984375 4.78125 -0.984375 C 5.613281 -0.984375 6.265625 -1.320312 6.734375 -2 C 7.210938 -2.675781 7.453125 -3.601562 7.453125 -4.78125 C 7.453125 -5.957031 7.210938 -6.882812 6.734375 -7.5625 C 6.265625 -8.25 5.613281 -8.59375 4.78125 -8.59375 C 3.957031 -8.59375 3.304688 -8.25 2.828125 -7.5625 C 2.347656 -6.882812 2.109375 -5.957031 2.109375 -4.78125 Z M 2.109375 -4.78125 "/></g></g></g><g fill="#202020" fill-opacity="1"><g transform="translate(87.527803, 15.91771)"><g><path d="M 0.234375 0 L 4.171875 -9.578125 L 5.296875 -9.578125 L 9.234375 0 L 7.953125 0 L 7.0625 -2.171875 L 2.390625 -2.171875 L 1.515625 0 Z M 2.859375 -3.296875 L 6.609375 -3.296875 L 4.734375 -7.890625 Z M 2.859375 -3.296875 "/></g></g></g><g fill="#202020" fill-opacity="1"><g transform="translate(96.983305, 15.91771)"><g><path d="M 1.390625 0 L 1.390625 -9.578125 L 2.515625 -9.578125 L 6.28125 -3.890625 L 10.015625 -9.578125 L 11.125 -9.578125 L 11.125 0 L 9.921875 0 L 9.921875 -7.3125 L 6.75 -2.546875 L 5.765625 -2.546875 L 2.59375 -7.328125 L 2.59375 0 Z M 1.390625 0 "/></g></g></g><g fill="#202020" fill-opacity="1"><g transform="translate(63.327225, 30.565905)"><g><path d="M 0.890625 0 L 0.890625 -6.140625 L 1.671875 -6.140625 L 1.671875 -0.734375 L 4.65625 -0.734375 L 4.65625 0 Z M 0.890625 0 "/></g></g></g><g fill="#202020" fill-opacity="1"><g transform="translate(68.257837, 30.565905)"><g><path d="M 2.796875 0.109375 C 2.335938 0.109375 1.929688 0.0078125 1.578125 -0.1875 C 1.222656 -0.382812 0.945312 -0.664062 0.75 -1.03125 C 0.550781 -1.394531 0.453125 -1.8125 0.453125 -2.28125 C 0.453125 -2.75 0.550781 -3.160156 0.75 -3.515625 C 0.945312 -3.878906 1.222656 -4.160156 1.578125 -4.359375 C 1.929688 -4.566406 2.335938 -4.671875 2.796875 -4.671875 C 3.285156 -4.671875 3.707031 -4.554688 4.0625 -4.328125 C 4.414062 -4.097656 4.6875 -3.78125 4.875 -3.375 C 5.070312 -2.976562 5.160156 -2.515625 5.140625 -1.984375 L 1.203125 -1.984375 C 1.265625 -1.554688 1.4375 -1.210938 1.71875 -0.953125 C 2.007812 -0.703125 2.367188 -0.578125 2.796875 -0.578125 C 3.097656 -0.578125 3.367188 -0.640625 3.609375 -0.765625 C 3.859375 -0.898438 4.054688 -1.085938 4.203125 -1.328125 L 5.03125 -1.328125 C 4.851562 -0.878906 4.5625 -0.523438 4.15625 -0.265625 C 3.757812 -0.015625 3.304688 0.109375 2.796875 0.109375 Z M 1.21875 -2.640625 L 4.40625 -2.640625 C 4.332031 -3.054688 4.148438 -3.382812 3.859375 -3.625 C 3.566406 -3.863281 3.210938 -3.984375 2.796875 -3.984375 C 2.378906 -3.984375 2.023438 -3.859375 1.734375 -3.609375 C 1.453125 -3.359375 1.28125 -3.035156 1.21875 -2.640625 Z M 1.40625 -5.28125 L 2.515625 -6.625 L 3.09375 -6.625 L 4.203125 -5.28125 L 3.40625 -5.28125 L 2.8125 -6.0625 L 2.203125 -5.28125 Z M 1.40625 -5.28125 "/></g></g></g><g fill="#202020" fill-opacity="1"><g transform="translate(69.286145, 28.447777)"><g><path d="M 2.34375 -5.34375 C 2.164062 -5.34375 2.015625 -5.378906 1.890625 -5.453125 C 1.773438 -5.535156 1.671875 -5.613281 1.578125 -5.6875 C 1.492188 -5.769531 1.394531 -5.8125 1.28125 -5.8125 C 1.207031 -5.8125 1.144531 -5.78125 1.09375 -5.71875 C 1.050781 -5.664062 1.03125 -5.585938 1.03125 -5.484375 L 1.03125 -5.359375 L 0.4375 -5.359375 L 0.4375 -5.546875 C 0.4375 -5.804688 0.503906 -6.015625 0.640625 -6.171875 C 0.785156 -6.328125 0.96875 -6.40625 1.1875 -6.40625 C 1.375 -6.40625 1.523438 -6.363281 1.640625 -6.28125 C 1.753906 -6.207031 1.859375 -6.128906 1.953125 -6.046875 C 2.046875 -5.960938 2.144531 -5.921875 2.25 -5.921875 C 2.332031 -5.921875 2.394531 -5.953125 2.4375 -6.015625 C 2.488281 -6.078125 2.515625 -6.15625 2.515625 -6.25 L 2.515625 -6.375 L 3.09375 -6.375 L 3.09375 -6.1875 C 3.09375 -5.925781 3.023438 -5.71875 2.890625 -5.5625 C 2.753906 -5.414062 2.570312 -5.34375 2.34375 -5.34375 Z M 2.34375 -5.34375 "/></g></g></g><g fill="#202020" fill-opacity="1"><g transform="translate(73.855615, 30.565905)"><g/></g></g><g fill="#202020" fill-opacity="1"><g transform="translate(76.035287, 30.565905)"><g/></g></g><g fill="#202020" fill-opacity="1"><g transform="translate(78.215741, 30.565905)"><g><path d="M 2.796875 0.109375 C 2.335938 0.109375 1.929688 0.0078125 1.578125 -0.1875 C 1.234375 -0.394531 0.957031 -0.679688 0.75 -1.046875 C 0.550781 -1.410156 0.453125 -1.820312 0.453125 -2.28125 C 0.453125 -2.75 0.550781 -3.160156 0.75 -3.515625 C 0.957031 -3.878906 1.234375 -4.160156 1.578125 -4.359375 C 1.929688 -4.566406 2.335938 -4.671875 2.796875 -4.671875 C 3.179688 -4.671875 3.53125 -4.597656 3.84375 -4.453125 C 4.164062 -4.304688 4.429688 -4.109375 4.640625 -3.859375 C 4.859375 -3.609375 5.003906 -3.304688 5.078125 -2.953125 L 4.34375 -2.953125 C 4.207031 -3.273438 4 -3.523438 3.71875 -3.703125 C 3.445312 -3.878906 3.140625 -3.96875 2.796875 -3.96875 C 2.484375 -3.96875 2.207031 -3.894531 1.96875 -3.75 C 1.726562 -3.601562 1.535156 -3.40625 1.390625 -3.15625 C 1.253906 -2.90625 1.1875 -2.613281 1.1875 -2.28125 C 1.1875 -1.957031 1.253906 -1.664062 1.390625 -1.40625 C 1.535156 -1.15625 1.726562 -0.957031 1.96875 -0.8125 C 2.207031 -0.664062 2.484375 -0.59375 2.796875 -0.59375 C 3.171875 -0.59375 3.492188 -0.691406 3.765625 -0.890625 C 4.046875 -1.085938 4.242188 -1.347656 4.359375 -1.671875 L 5.140625 -1.671875 C 4.984375 -1.128906 4.695312 -0.695312 4.28125 -0.375 C 3.863281 -0.0507812 3.367188 0.109375 2.796875 0.109375 Z M 2.796875 0.109375 "/></g></g></g><g fill="#202020" fill-opacity="1"><g transform="translate(83.787949, 30.565905)"><g><path d="M 6.15625 -5.4375 L 6.21875 -5.34375 C 6.164062 -5.0625 6.085938 -4.796875 5.984375 -4.546875 C 5.878906 -4.304688 5.722656 -4.101562 5.515625 -3.9375 C 5.304688 -3.769531 5.03125 -3.671875 4.6875 -3.640625 L 4.6875 0 L 4.046875 0 L 3.9375 -0.625 L 3.90625 -0.625 C 3.75 -0.375 3.535156 -0.191406 3.265625 -0.078125 C 3.003906 0.0351562 2.722656 0.09375 2.421875 0.09375 C 1.847656 0.09375 1.414062 -0.0390625 1.125 -0.3125 C 0.832031 -0.59375 0.6875 -1.03125 0.6875 -1.625 L 0.6875 -4.703125 L 1.46875 -4.703125 L 1.46875 -1.671875 C 1.46875 -0.921875 1.816406 -0.546875 2.515625 -0.546875 C 3.035156 -0.546875 3.394531 -0.691406 3.59375 -0.984375 C 3.800781 -1.285156 3.90625 -1.707031 3.90625 -2.25 L 3.90625 -4.703125 L 4.6875 -4.703125 L 4.6875 -4.1875 C 4.96875 -4.226562 5.144531 -4.359375 5.21875 -4.578125 C 5.300781 -4.804688 5.34375 -5.09375 5.34375 -5.4375 Z M 6.15625 -5.4375 "/></g></g></g><g fill="#202020" fill-opacity="1"><g transform="translate(89.711722, 30.565905)"><g><path d="M 4.84375 -2.359375 C 4.84375 -1.578125 4.644531 -0.972656 4.25 -0.546875 C 3.851562 -0.117188 3.316406 0.09375 2.640625 0.09375 C 2.222656 0.09375 1.851562 0 1.53125 -0.1875 C 1.207031 -0.382812 0.953125 -0.664062 0.765625 -1.03125 C 0.578125 -1.394531 0.484375 -1.835938 0.484375 -2.359375 C 0.484375 -3.140625 0.675781 -3.738281 1.0625 -4.15625 C 1.457031 -4.582031 1.992188 -4.796875 2.671875 -4.796875 C 2.972656 -4.796875 3.253906 -4.742188 3.515625 -4.640625 C 3.785156 -4.535156 4.015625 -4.382812 4.203125 -4.1875 C 4.460938 -4.257812 4.625 -4.410156 4.6875 -4.640625 C 4.75 -4.867188 4.78125 -5.128906 4.78125 -5.421875 L 5.609375 -5.421875 L 5.671875 -5.328125 C 5.585938 -4.921875 5.460938 -4.582031 5.296875 -4.3125 C 5.128906 -4.039062 4.878906 -3.84375 4.546875 -3.71875 C 4.640625 -3.53125 4.710938 -3.320312 4.765625 -3.09375 C 4.816406 -2.875 4.84375 -2.628906 4.84375 -2.359375 Z M 1.28125 -2.359375 C 1.28125 -1.765625 1.390625 -1.3125 1.609375 -1 C 1.828125 -0.695312 2.175781 -0.546875 2.65625 -0.546875 C 3.144531 -0.546875 3.5 -0.695312 3.71875 -1 C 3.9375 -1.3125 4.046875 -1.765625 4.046875 -2.359375 C 4.046875 -2.953125 3.929688 -3.394531 3.703125 -3.6875 C 3.484375 -3.988281 3.132812 -4.140625 2.65625 -4.140625 C 2.175781 -4.140625 1.828125 -3.988281 1.609375 -3.6875 C 1.390625 -3.394531 1.28125 -2.953125 1.28125 -2.359375 Z M 3.890625 -6.71875 L 3.890625 -6.640625 C 3.816406 -6.535156 3.707031 -6.398438 3.5625 -6.234375 C 3.425781 -6.066406 3.273438 -5.898438 3.109375 -5.734375 C 2.941406 -5.566406 2.785156 -5.429688 2.640625 -5.328125 L 2.125 -5.328125 L 2.125 -5.421875 C 2.207031 -5.523438 2.300781 -5.65625 2.40625 -5.8125 C 2.519531 -5.96875 2.625 -6.125 2.71875 -6.28125 C 2.820312 -6.445312 2.90625 -6.59375 2.96875 -6.71875 Z M 3.890625 -6.71875 "/></g></g></g><g fill="#202020" fill-opacity="1"><g transform="translate(95.125738, 30.565905)"><g><path d="M 0.8125 0 L 0.8125 -4.5625 L 1.546875 -4.5625 L 1.546875 0 Z M 0.59375 -5.890625 C 0.59375 -6.054688 0.644531 -6.191406 0.75 -6.296875 C 0.851562 -6.410156 1 -6.46875 1.1875 -6.46875 C 1.363281 -6.46875 1.503906 -6.410156 1.609375 -6.296875 C 1.722656 -6.191406 1.78125 -6.054688 1.78125 -5.890625 C 1.78125 -5.722656 1.722656 -5.582031 1.609375 -5.46875 C 1.503906 -5.363281 1.363281 -5.3125 1.1875 -5.3125 C 1 -5.3125 0.851562 -5.363281 0.75 -5.46875 C 0.644531 -5.582031 0.59375 -5.722656 0.59375 -5.890625 Z M 0.59375 -5.890625 "/></g></g></g><g fill="#202020" fill-opacity="1"><g transform="translate(142.987963, 64.441608)"><g><path d="M 2.703125 0 L 2.703125 -6.90625 L 0.5 -6.90625 L 0.5 -8.03125 L 1.5625 -8.03125 C 1.976562 -8.03125 2.269531 -8.085938 2.4375 -8.203125 C 2.613281 -8.316406 2.738281 -8.539062 2.8125 -8.875 L 2.96875 -9.578125 L 3.90625 -9.578125 L 3.90625 0 Z M 2.703125 0 "/></g></g></g><g fill="#202020" fill-opacity="1"><g transform="translate(148.289608, 64.441608)"><g><path d="M 2.703125 0 L 2.703125 -6.90625 L 0.5 -6.90625 L 0.5 -8.03125 L 1.5625 -8.03125 C 1.976562 -8.03125 2.269531 -8.085938 2.4375 -8.203125 C 2.613281 -8.316406 2.738281 -8.539062 2.8125 -8.875 L 2.96875 -9.578125 L 3.90625 -9.578125 L 3.90625 0 Z M 2.703125 0 "/></g></g></g><g fill="#202020" fill-opacity="1"><g transform="translate(153.591252, 64.441608)"><g><path d="M 0.234375 0 L 4.171875 -9.578125 L 5.296875 -9.578125 L 9.234375 0 L 7.953125 0 L 7.0625 -2.171875 L 2.390625 -2.171875 L 1.515625 0 Z M 2.859375 -3.296875 L 6.609375 -3.296875 L 4.734375 -7.890625 Z M 2.859375 -3.296875 "/></g></g></g><g fill="#202020" fill-opacity="1"><g transform="translate(163.046754, 64.441608)"><g><path d="M 1.390625 0 L 1.390625 -9.578125 L 2.515625 -9.578125 L 6.28125 -3.890625 L 10.015625 -9.578125 L 11.125 -9.578125 L 11.125 0 L 9.921875 0 L 9.921875 -7.3125 L 6.75 -2.546875 L 5.765625 -2.546875 L 2.59375 -7.328125 L 2.59375 0 Z M 1.390625 0 "/></g></g></g><g fill="#202020" fill-opacity="1"><g transform="translate(137.712324, 79.089803)"><g><path d="M 3.625 0.109375 C 3.164062 0.109375 2.742188 0.03125 2.359375 -0.125 C 1.984375 -0.28125 1.65625 -0.5 1.375 -0.78125 C 1.101562 -1.070312 0.890625 -1.410156 0.734375 -1.796875 C 0.585938 -2.179688 0.515625 -2.609375 0.515625 -3.078125 C 0.515625 -3.535156 0.585938 -3.957031 0.734375 -4.34375 C 0.890625 -4.738281 1.101562 -5.078125 1.375 -5.359375 C 1.65625 -5.640625 1.984375 -5.859375 2.359375 -6.015625 C 2.742188 -6.179688 3.164062 -6.265625 3.625 -6.265625 C 4.101562 -6.265625 4.546875 -6.171875 4.953125 -5.984375 C 5.359375 -5.804688 5.707031 -5.550781 6 -5.21875 C 6.289062 -4.894531 6.503906 -4.507812 6.640625 -4.0625 L 5.8125 -4.0625 C 5.65625 -4.5 5.378906 -4.84375 4.984375 -5.09375 C 4.597656 -5.351562 4.148438 -5.484375 3.640625 -5.484375 C 3.179688 -5.484375 2.773438 -5.378906 2.421875 -5.171875 C 2.078125 -4.972656 1.800781 -4.691406 1.59375 -4.328125 C 1.394531 -3.960938 1.296875 -3.546875 1.296875 -3.078125 C 1.296875 -2.597656 1.394531 -2.175781 1.59375 -1.8125 C 1.800781 -1.445312 2.078125 -1.160156 2.421875 -0.953125 C 2.773438 -0.753906 3.179688 -0.65625 3.640625 -0.65625 C 4.160156 -0.65625 4.625 -0.789062 5.03125 -1.0625 C 5.4375 -1.332031 5.71875 -1.695312 5.875 -2.15625 L 6.6875 -2.15625 C 6.5625 -1.695312 6.351562 -1.296875 6.0625 -0.953125 C 5.769531 -0.617188 5.410156 -0.359375 4.984375 -0.171875 C 4.566406 0.015625 4.113281 0.109375 3.625 0.109375 Z M 3.625 0.109375 "/></g></g></g><g fill="#202020" fill-opacity="1"><g transform="translate(144.88413, 79.089803)"><g><path d="M 0.8125 0 L 0.8125 -6.5 L 1.546875 -6.5 L 1.546875 -3.953125 C 1.753906 -4.203125 1.992188 -4.382812 2.265625 -4.5 C 2.535156 -4.613281 2.820312 -4.671875 3.125 -4.671875 C 3.71875 -4.671875 4.1875 -4.476562 4.53125 -4.09375 C 4.875 -3.71875 5.046875 -3.207031 5.046875 -2.5625 L 5.046875 0 L 4.296875 0 L 4.296875 -2.5 C 4.296875 -2.945312 4.179688 -3.300781 3.953125 -3.5625 C 3.734375 -3.832031 3.421875 -3.96875 3.015625 -3.96875 C 2.585938 -3.96875 2.234375 -3.816406 1.953125 -3.515625 C 1.679688 -3.222656 1.546875 -2.828125 1.546875 -2.328125 L 1.546875 0 Z M 0.8125 0 "/></g></g></g><g fill="#202020" fill-opacity="1"><g transform="translate(150.658484, 79.089803)"><g><path d="M 4.6875 -4.703125 L 4.6875 0 L 4.046875 0 L 3.9375 -0.625 L 3.90625 -0.625 C 3.75 -0.375 3.535156 -0.191406 3.265625 -0.078125 C 2.992188 0.0351562 2.707031 0.09375 2.40625 0.09375 C 1.832031 0.09375 1.398438 -0.0390625 1.109375 -0.3125 C 0.828125 -0.59375 0.6875 -1.03125 0.6875 -1.625 L 0.6875 -4.703125 L 1.46875 -4.703125 L 1.46875 -1.671875 C 1.46875 -0.921875 1.816406 -0.546875 2.515625 -0.546875 C 3.035156 -0.546875 3.394531 -0.691406 3.59375 -0.984375 C 3.800781 -1.285156 3.90625 -1.707031 3.90625 -2.25 L 3.90625 -4.703125 Z M 2.578125 1.546875 C 2.453125 1.546875 2.34375 1.503906 2.25 1.421875 C 2.164062 1.335938 2.125 1.210938 2.125 1.046875 C 2.125 0.878906 2.164062 0.753906 2.25 0.671875 C 2.34375 0.597656 2.453125 0.5625 2.578125 0.5625 C 2.703125 0.5625 2.804688 0.597656 2.890625 0.671875 C 2.984375 0.753906 3.03125 0.878906 3.03125 1.046875 C 3.03125 1.210938 2.984375 1.335938 2.890625 1.421875 C 2.804688 1.503906 2.703125 1.546875 2.578125 1.546875 Z M 2.578125 1.546875 "/></g></g></g><g fill="#202020" fill-opacity="1"><g transform="translate(156.090068, 79.089803)"><g><path d="M 3.296875 0.109375 C 2.941406 0.109375 2.613281 0.0390625 2.3125 -0.09375 C 2.007812 -0.226562 1.753906 -0.414062 1.546875 -0.65625 L 1.546875 1.75 L 0.8125 1.75 L 0.8125 -4.5625 L 1.421875 -4.5625 L 1.515625 -3.859375 C 1.710938 -4.109375 1.960938 -4.304688 2.265625 -4.453125 C 2.578125 -4.597656 2.921875 -4.671875 3.296875 -4.671875 C 3.753906 -4.671875 4.15625 -4.566406 4.5 -4.359375 C 4.84375 -4.148438 5.113281 -3.867188 5.3125 -3.515625 C 5.519531 -3.160156 5.625 -2.75 5.625 -2.28125 C 5.625 -1.820312 5.519531 -1.410156 5.3125 -1.046875 C 5.113281 -0.691406 4.84375 -0.410156 4.5 -0.203125 C 4.15625 0.00390625 3.753906 0.109375 3.296875 0.109375 Z M 1.53125 -2.28125 C 1.53125 -1.957031 1.597656 -1.664062 1.734375 -1.40625 C 1.878906 -1.15625 2.078125 -0.957031 2.328125 -0.8125 C 2.585938 -0.664062 2.878906 -0.59375 3.203125 -0.59375 C 3.535156 -0.59375 3.828125 -0.664062 4.078125 -0.8125 C 4.328125 -0.957031 4.519531 -1.15625 4.65625 -1.40625 C 4.800781 -1.664062 4.875 -1.957031 4.875 -2.28125 C 4.875 -2.613281 4.800781 -2.90625 4.65625 -3.15625 C 4.519531 -3.40625 4.328125 -3.601562 4.078125 -3.75 C 3.828125 -3.894531 3.535156 -3.96875 3.203125 -3.96875 C 2.878906 -3.96875 2.585938 -3.894531 2.328125 -3.75 C 2.078125 -3.601562 1.878906 -3.40625 1.734375 -3.15625 C 1.597656 -2.90625 1.53125 -2.613281 1.53125 -2.28125 Z M 1.53125 -2.28125 "/></g></g></g><g fill="#202020" fill-opacity="1"><g transform="translate(162.172044, 79.089803)"><g/></g></g><g fill="#202020" fill-opacity="1"><g transform="translate(164.351716, 79.089803)"><g><path d="M 2.53125 -4.78125 C 3.101562 -4.78125 3.523438 -4.65625 3.796875 -4.40625 C 4.078125 -4.15625 4.21875 -3.753906 4.21875 -3.203125 L 4.21875 0 L 3.65625 0 L 3.5 -0.671875 L 3.46875 -0.671875 C 3.257812 -0.410156 3.039062 -0.21875 2.8125 -0.09375 C 2.582031 0.03125 2.273438 0.09375 1.890625 0.09375 C 1.460938 0.09375 1.109375 -0.0195312 0.828125 -0.25 C 0.546875 -0.476562 0.40625 -0.832031 0.40625 -1.3125 C 0.40625 -1.78125 0.585938 -2.140625 0.953125 -2.390625 C 1.328125 -2.648438 1.894531 -2.789062 2.65625 -2.8125 L 3.453125 -2.84375 L 3.453125 -3.125 C 3.453125 -3.507812 3.367188 -3.773438 3.203125 -3.921875 C 3.035156 -4.078125 2.796875 -4.15625 2.484375 -4.15625 C 2.234375 -4.15625 2 -4.117188 1.78125 -4.046875 C 1.5625 -3.972656 1.351562 -3.890625 1.15625 -3.796875 L 0.921875 -4.375 C 1.128906 -4.488281 1.375 -4.582031 1.65625 -4.65625 C 1.9375 -4.738281 2.226562 -4.78125 2.53125 -4.78125 Z M 3.453125 -2.296875 L 2.75 -2.28125 C 2.164062 -2.25 1.757812 -2.148438 1.53125 -1.984375 C 1.3125 -1.828125 1.203125 -1.597656 1.203125 -1.296875 C 1.203125 -1.035156 1.28125 -0.84375 1.4375 -0.71875 C 1.601562 -0.59375 1.8125 -0.53125 2.0625 -0.53125 C 2.457031 -0.53125 2.785156 -0.640625 3.046875 -0.859375 C 3.316406 -1.078125 3.453125 -1.414062 3.453125 -1.875 Z M 3.421875 -6.40625 C 3.421875 -6.1875 3.351562 -6.015625 3.21875 -5.890625 C 3.082031 -5.773438 2.914062 -5.691406 2.71875 -5.640625 L 2.671875 -5.1875 L 2.1875 -5.1875 L 2.125 -5.921875 C 2.34375 -5.960938 2.515625 -6.015625 2.640625 -6.078125 C 2.765625 -6.148438 2.828125 -6.253906 2.828125 -6.390625 C 2.828125 -6.523438 2.769531 -6.613281 2.65625 -6.65625 C 2.550781 -6.707031 2.414062 -6.734375 2.25 -6.734375 C 2.175781 -6.734375 2.097656 -6.726562 2.015625 -6.71875 C 1.941406 -6.707031 1.878906 -6.703125 1.828125 -6.703125 L 1.828125 -7.15625 C 1.929688 -7.1875 2.09375 -7.203125 2.3125 -7.203125 C 2.664062 -7.203125 2.9375 -7.132812 3.125 -7 C 3.320312 -6.875 3.421875 -6.675781 3.421875 -6.40625 Z M 3.421875 -6.40625 "/></g></g></g><g fill="#202020" fill-opacity="1"><g transform="translate(169.282328, 79.089803)"><g><path d="M 0.8125 0 L 0.8125 -4.5625 L 1.421875 -4.5625 L 1.5 -3.890625 C 1.695312 -4.160156 1.9375 -4.359375 2.21875 -4.484375 C 2.507812 -4.609375 2.804688 -4.671875 3.109375 -4.671875 C 3.710938 -4.671875 4.1875 -4.476562 4.53125 -4.09375 C 4.875 -3.707031 5.046875 -3.1875 5.046875 -2.53125 L 5.046875 0 L 4.296875 0 L 4.296875 -2.46875 C 4.296875 -2.925781 4.179688 -3.289062 3.953125 -3.5625 C 3.722656 -3.832031 3.410156 -3.96875 3.015625 -3.96875 C 2.734375 -3.96875 2.484375 -3.898438 2.265625 -3.765625 C 2.046875 -3.628906 1.867188 -3.429688 1.734375 -3.171875 C 1.609375 -2.921875 1.546875 -2.628906 1.546875 -2.296875 L 1.546875 0 Z M 0.8125 0 "/></g></g></g><g fill="#202020" fill-opacity="1"><g transform="translate(175.056682, 79.089803)"><g><path d="M 0.8125 0 L 0.8125 -6.5 L 1.546875 -6.5 L 1.546875 -3.953125 C 1.753906 -4.203125 1.992188 -4.382812 2.265625 -4.5 C 2.535156 -4.613281 2.820312 -4.671875 3.125 -4.671875 C 3.71875 -4.671875 4.1875 -4.476562 4.53125 -4.09375 C 4.875 -3.71875 5.046875 -3.207031 5.046875 -2.5625 L 5.046875 0 L 4.296875 0 L 4.296875 -2.5 C 4.296875 -2.945312 4.179688 -3.300781 3.953125 -3.5625 C 3.734375 -3.832031 3.421875 -3.96875 3.015625 -3.96875 C 2.585938 -3.96875 2.234375 -3.816406 1.953125 -3.515625 C 1.679688 -3.222656 1.546875 -2.828125 1.546875 -2.328125 L 1.546875 0 Z M 0.8125 0 "/></g></g></g><g fill="#202020" fill-opacity="1"><g transform="translate(206.335768, 15.91771)"><g><path d="M 2.703125 0 L 2.703125 -6.90625 L 0.5 -6.90625 L 0.5 -8.03125 L 1.5625 -8.03125 C 1.976562 -8.03125 2.269531 -8.085938 2.4375 -8.203125 C 2.613281 -8.316406 2.738281 -8.539062 2.8125 -8.875 L 2.96875 -9.578125 L 3.90625 -9.578125 L 3.90625 0 Z M 2.703125 0 "/></g></g></g><g fill="#202020" fill-opacity="1"><g transform="translate(211.637413, 15.91771)"><g><path d="M 2.703125 0 L 2.703125 -6.90625 L 0.5 -6.90625 L 0.5 -8.03125 L 1.5625 -8.03125 C 1.976562 -8.03125 2.269531 -8.085938 2.4375 -8.203125 C 2.613281 -8.316406 2.738281 -8.539062 2.8125 -8.875 L 2.96875 -9.578125 L 3.90625 -9.578125 L 3.90625 0 Z M 2.703125 0 "/></g></g></g><g fill="#202020" fill-opacity="1"><g transform="translate(216.939058, 15.91771)"><g><path d="M 1.75 0.109375 C 1.476562 0.109375 1.253906 0.0234375 1.078125 -0.140625 C 0.910156 -0.316406 0.828125 -0.535156 0.828125 -0.796875 C 0.828125 -1.054688 0.910156 -1.269531 1.078125 -1.4375 C 1.253906 -1.601562 1.476562 -1.6875 1.75 -1.6875 C 2.03125 -1.6875 2.253906 -1.601562 2.421875 -1.4375 C 2.597656 -1.269531 2.6875 -1.054688 2.6875 -0.796875 C 2.6875 -0.535156 2.597656 -0.316406 2.421875 -0.140625 C 2.253906 0.0234375 2.03125 0.109375 1.75 0.109375 Z M 0.828125 -6.3125 C 0.828125 -6.582031 0.910156 -6.796875 1.078125 -6.953125 C 1.253906 -7.117188 1.476562 -7.203125 1.75 -7.203125 C 2.03125 -7.203125 2.253906 -7.117188 2.421875 -6.953125 C 2.597656 -6.796875 2.6875 -6.582031 2.6875 -6.3125 C 2.6875 -6.0625 2.597656 -5.847656 2.421875 -5.671875 C 2.253906 -5.503906 2.03125 -5.421875 1.75 -5.421875 C 1.476562 -5.421875 1.253906 -5.503906 1.078125 -5.671875 C 0.910156 -5.847656 0.828125 -6.0625 0.828125 -6.3125 Z M 0.828125 -6.3125 "/></g></g></g><g fill="#202020" fill-opacity="1"><g transform="translate(220.450715, 15.91771)"><g><path d="M 4.078125 0.171875 C 3.441406 0.171875 2.882812 0.0507812 2.40625 -0.1875 C 1.925781 -0.425781 1.546875 -0.765625 1.265625 -1.203125 C 0.992188 -1.648438 0.847656 -2.171875 0.828125 -2.765625 L 2 -2.765625 C 2.03125 -2.222656 2.234375 -1.789062 2.609375 -1.46875 C 2.992188 -1.144531 3.484375 -0.984375 4.078125 -0.984375 C 4.703125 -0.984375 5.203125 -1.15625 5.578125 -1.5 C 5.953125 -1.851562 6.140625 -2.320312 6.140625 -2.90625 C 6.140625 -3.476562 5.953125 -3.929688 5.578125 -4.265625 C 5.203125 -4.609375 4.707031 -4.78125 4.09375 -4.78125 L 2.53125 -4.78125 L 2.53125 -5.640625 L 5.21875 -8.453125 L 0.984375 -8.453125 L 0.984375 -9.578125 L 7.015625 -9.578125 L 7.015625 -8.703125 L 4.3125 -5.875 C 4.914062 -5.851562 5.445312 -5.710938 5.90625 -5.453125 C 6.363281 -5.191406 6.71875 -4.835938 6.96875 -4.390625 C 7.21875 -3.953125 7.34375 -3.441406 7.34375 -2.859375 C 7.34375 -2.253906 7.203125 -1.722656 6.921875 -1.265625 C 6.648438 -0.816406 6.269531 -0.460938 5.78125 -0.203125 C 5.300781 0.046875 4.734375 0.171875 4.078125 0.171875 Z M 4.078125 0.171875 "/></g></g></g><g fill="#202020" fill-opacity="1"><g transform="translate(228.717448, 15.91771)"><g><path d="M 4.78125 0.171875 C 3.988281 0.171875 3.300781 -0.0234375 2.71875 -0.421875 C 2.144531 -0.828125 1.703125 -1.398438 1.390625 -2.140625 C 1.078125 -2.878906 0.921875 -3.757812 0.921875 -4.78125 C 0.921875 -5.800781 1.078125 -6.679688 1.390625 -7.421875 C 1.703125 -8.171875 2.144531 -8.742188 2.71875 -9.140625 C 3.300781 -9.546875 3.988281 -9.75 4.78125 -9.75 C 5.582031 -9.75 6.269531 -9.546875 6.84375 -9.140625 C 7.425781 -8.742188 7.867188 -8.171875 8.171875 -7.421875 C 8.484375 -6.679688 8.640625 -5.800781 8.640625 -4.78125 C 8.640625 -3.757812 8.484375 -2.878906 8.171875 -2.140625 C 7.867188 -1.398438 7.425781 -0.828125 6.84375 -0.421875 C 6.269531 -0.0234375 5.582031 0.171875 4.78125 0.171875 Z M 2.109375 -4.78125 C 2.109375 -3.601562 2.347656 -2.675781 2.828125 -2 C 3.304688 -1.320312 3.957031 -0.984375 4.78125 -0.984375 C 5.613281 -0.984375 6.265625 -1.320312 6.734375 -2 C 7.210938 -2.675781 7.453125 -3.601562 7.453125 -4.78125 C 7.453125 -5.957031 7.210938 -6.882812 6.734375 -7.5625 C 6.265625 -8.25 5.613281 -8.59375 4.78125 -8.59375 C 3.957031 -8.59375 3.304688 -8.25 2.828125 -7.5625 C 2.347656 -6.882812 2.109375 -5.957031 2.109375 -4.78125 Z M 2.109375 -4.78125 "/></g></g></g><g fill="#202020" fill-opacity="1"><g transform="translate(238.268602, 15.91771)"><g><path d="M 0.234375 0 L 4.171875 -9.578125 L 5.296875 -9.578125 L 9.234375 0 L 7.953125 0 L 7.0625 -2.171875 L 2.390625 -2.171875 L 1.515625 0 Z M 2.859375 -3.296875 L 6.609375 -3.296875 L 4.734375 -7.890625 Z M 2.859375 -3.296875 "/></g></g></g><g fill="#202020" fill-opacity="1"><g transform="translate(247.724104, 15.91771)"><g><path d="M 1.390625 0 L 1.390625 -9.578125 L 2.515625 -9.578125 L 6.28125 -3.890625 L 10.015625 -9.578125 L 11.125 -9.578125 L 11.125 0 L 9.921875 0 L 9.921875 -7.3125 L 6.75 -2.546875 L 5.765625 -2.546875 L 2.59375 -7.328125 L 2.59375 0 Z M 1.390625 0 "/></g></g></g><g fill="#202020" fill-opacity="1"><g transform="translate(202.582169, 30.565905)"><g><path d="M 2.375 0 L 2.375 -5.40625 L 0.296875 -5.40625 L 0.296875 -6.140625 L 5.21875 -6.140625 L 5.21875 -5.40625 L 3.15625 -5.40625 L 3.15625 0 Z M 2.375 0 "/></g></g></g><g fill="#202020" fill-opacity="1"><g transform="translate(208.119229, 30.565905)"><g><path d="M 0.8125 0 L 0.8125 -4.5625 L 1.546875 -4.5625 L 1.546875 0 Z M 0.59375 -5.890625 C 0.59375 -6.054688 0.644531 -6.191406 0.75 -6.296875 C 0.851562 -6.410156 1 -6.46875 1.1875 -6.46875 C 1.363281 -6.46875 1.503906 -6.410156 1.609375 -6.296875 C 1.722656 -6.191406 1.78125 -6.054688 1.78125 -5.890625 C 1.78125 -5.722656 1.722656 -5.582031 1.609375 -5.46875 C 1.503906 -5.363281 1.363281 -5.3125 1.1875 -5.3125 C 1 -5.3125 0.851562 -5.363281 0.75 -5.46875 C 0.644531 -5.582031 0.59375 -5.722656 0.59375 -5.890625 Z M 0.59375 -5.890625 "/></g></g></g><g fill="#202020" fill-opacity="1"><g transform="translate(210.492252, 30.565905)"><g><path d="M 2.5625 -4.796875 C 2.957031 -4.796875 3.300781 -4.707031 3.59375 -4.53125 C 3.894531 -4.351562 4.117188 -4.101562 4.265625 -3.78125 C 4.421875 -3.46875 4.5 -3.097656 4.5 -2.671875 L 4.5 -2.203125 L 1.28125 -2.203125 C 1.289062 -1.671875 1.425781 -1.265625 1.6875 -0.984375 C 1.945312 -0.710938 2.3125 -0.578125 2.78125 -0.578125 C 3.082031 -0.578125 3.347656 -0.601562 3.578125 -0.65625 C 3.804688 -0.707031 4.046875 -0.785156 4.296875 -0.890625 L 4.296875 -0.21875 C 4.054688 -0.113281 3.816406 -0.0351562 3.578125 0.015625 C 3.347656 0.0664062 3.070312 0.09375 2.75 0.09375 C 2.300781 0.09375 1.90625 0.00390625 1.5625 -0.171875 C 1.21875 -0.359375 0.953125 -0.628906 0.765625 -0.984375 C 0.578125 -1.347656 0.484375 -1.789062 0.484375 -2.3125 C 0.484375 -2.832031 0.566406 -3.273438 0.734375 -3.640625 C 0.910156 -4.015625 1.15625 -4.300781 1.46875 -4.5 C 1.78125 -4.695312 2.144531 -4.796875 2.5625 -4.796875 Z M 2.5625 -4.15625 C 2.1875 -4.15625 1.890625 -4.035156 1.671875 -3.796875 C 1.460938 -3.566406 1.335938 -3.238281 1.296875 -2.8125 L 3.703125 -2.8125 C 3.691406 -3.21875 3.59375 -3.539062 3.40625 -3.78125 C 3.226562 -4.03125 2.945312 -4.15625 2.5625 -4.15625 Z M 2.90625 -6.71875 C 2.976562 -6.59375 3.078125 -6.445312 3.203125 -6.28125 C 3.335938 -6.125 3.476562 -5.96875 3.625 -5.8125 C 3.769531 -5.65625 3.894531 -5.523438 4 -5.421875 L 4 -5.328125 L 3.46875 -5.328125 C 3.3125 -5.421875 3.148438 -5.535156 2.984375 -5.671875 C 2.828125 -5.804688 2.664062 -5.953125 2.5 -6.109375 C 2.34375 -5.953125 2.1875 -5.804688 2.03125 -5.671875 C 1.875 -5.535156 1.71875 -5.421875 1.5625 -5.328125 L 1.03125 -5.328125 L 1.03125 -5.421875 C 1.144531 -5.523438 1.269531 -5.65625 1.40625 -5.8125 C 1.550781 -5.96875 1.6875 -6.125 1.8125 -6.28125 C 1.9375 -6.445312 2.039062 -6.59375 2.125 -6.71875 Z M 2.640625 1.546875 C 2.515625 1.546875 2.40625 1.503906 2.3125 1.421875 C 2.226562 1.335938 2.1875 1.210938 2.1875 1.046875 C 2.1875 0.878906 2.226562 0.753906 2.3125 0.671875 C 2.40625 0.597656 2.515625 0.5625 2.640625 0.5625 C 2.765625 0.5625 2.867188 0.597656 2.953125 0.671875 C 3.046875 0.753906 3.09375 0.878906 3.09375 1.046875 C 3.09375 1.210938 3.046875 1.335938 2.953125 1.421875 C 2.867188 1.503906 2.765625 1.546875 2.640625 1.546875 Z M 2.640625 1.546875 "/></g></g></g><g fill="#202020" fill-opacity="1"><g transform="translate(215.449238, 30.565905)"><g><path d="M 2.796875 0.109375 C 2.335938 0.109375 1.929688 0.0078125 1.578125 -0.1875 C 1.234375 -0.394531 0.957031 -0.679688 0.75 -1.046875 C 0.550781 -1.410156 0.453125 -1.820312 0.453125 -2.28125 C 0.453125 -2.75 0.550781 -3.160156 0.75 -3.515625 C 0.957031 -3.878906 1.234375 -4.160156 1.578125 -4.359375 C 1.929688 -4.566406 2.335938 -4.671875 2.796875 -4.671875 C 3.179688 -4.671875 3.53125 -4.597656 3.84375 -4.453125 C 4.164062 -4.304688 4.429688 -4.109375 4.640625 -3.859375 C 4.859375 -3.609375 5.003906 -3.304688 5.078125 -2.953125 L 4.34375 -2.953125 C 4.207031 -3.273438 4 -3.523438 3.71875 -3.703125 C 3.445312 -3.878906 3.140625 -3.96875 2.796875 -3.96875 C 2.484375 -3.96875 2.207031 -3.894531 1.96875 -3.75 C 1.726562 -3.601562 1.535156 -3.40625 1.390625 -3.15625 C 1.253906 -2.90625 1.1875 -2.613281 1.1875 -2.28125 C 1.1875 -1.957031 1.253906 -1.664062 1.390625 -1.40625 C 1.535156 -1.15625 1.726562 -0.957031 1.96875 -0.8125 C 2.207031 -0.664062 2.484375 -0.59375 2.796875 -0.59375 C 3.171875 -0.59375 3.492188 -0.691406 3.765625 -0.890625 C 4.046875 -1.085938 4.242188 -1.347656 4.359375 -1.671875 L 5.140625 -1.671875 C 4.984375 -1.128906 4.695312 -0.695312 4.28125 -0.375 C 3.863281 -0.0507812 3.367188 0.109375 2.796875 0.109375 Z M 2.796875 0.109375 "/></g></g></g><g fill="#202020" fill-opacity="1"><g transform="translate(221.021446, 30.565905)"><g/></g></g><g fill="#202020" fill-opacity="1"><g transform="translate(223.201118, 30.565905)"><g><path d="M 2.78125 0 C 2.28125 0 1.890625 -0.140625 1.609375 -0.421875 C 1.328125 -0.710938 1.1875 -1.117188 1.1875 -1.640625 L 1.1875 -3.875 L 0.234375 -3.875 L 0.234375 -4.5625 L 0.6875 -4.5625 C 0.90625 -4.5625 1.050781 -4.59375 1.125 -4.65625 C 1.207031 -4.726562 1.265625 -4.867188 1.296875 -5.078125 L 1.359375 -5.6875 L 1.9375 -5.6875 L 1.9375 -4.5625 L 3.40625 -4.5625 L 3.40625 -3.875 L 1.9375 -3.875 L 1.9375 -1.671875 C 1.9375 -1.035156 2.226562 -0.71875 2.8125 -0.71875 L 3.46875 -0.71875 L 3.46875 0 Z M 2.78125 0 "/></g></g></g><g fill="#202020" fill-opacity="1"><g transform="translate(227.103421, 30.565905)"><g><path d="M 0.8125 0 L 0.8125 -6.5 L 1.546875 -6.5 L 1.546875 -3.953125 C 1.753906 -4.203125 1.992188 -4.382812 2.265625 -4.5 C 2.535156 -4.613281 2.820312 -4.671875 3.125 -4.671875 C 3.71875 -4.671875 4.1875 -4.476562 4.53125 -4.09375 C 4.875 -3.71875 5.046875 -3.207031 5.046875 -2.5625 L 5.046875 0 L 4.296875 0 L 4.296875 -2.5 C 4.296875 -2.945312 4.179688 -3.300781 3.953125 -3.5625 C 3.734375 -3.832031 3.421875 -3.96875 3.015625 -3.96875 C 2.585938 -3.96875 2.234375 -3.816406 1.953125 -3.515625 C 1.679688 -3.222656 1.546875 -2.828125 1.546875 -2.328125 L 1.546875 0 Z M 0.8125 0 "/></g></g></g><g fill="#202020" fill-opacity="1"><g transform="translate(232.877775, 30.565905)"><g><path d="M 2.3125 0.0625 C 1.757812 0.0625 1.328125 -0.0546875 1.015625 -0.296875 C 0.703125 -0.546875 0.546875 -0.882812 0.546875 -1.3125 C 0.546875 -1.726562 0.6875 -2.054688 0.96875 -2.296875 C 1.257812 -2.546875 1.644531 -2.671875 2.125 -2.671875 L 3.984375 -2.671875 L 3.984375 -2.84375 C 3.984375 -3.195312 3.867188 -3.472656 3.640625 -3.671875 C 3.421875 -3.878906 3.117188 -3.984375 2.734375 -3.984375 C 2.441406 -3.984375 2.1875 -3.914062 1.96875 -3.78125 C 1.757812 -3.65625 1.613281 -3.484375 1.53125 -3.265625 L 0.796875 -3.265625 C 0.890625 -3.703125 1.109375 -4.046875 1.453125 -4.296875 C 1.804688 -4.546875 2.234375 -4.671875 2.734375 -4.671875 C 3.128906 -4.671875 3.472656 -4.59375 3.765625 -4.4375 C 4.066406 -4.289062 4.300781 -4.082031 4.46875 -3.8125 C 4.632812 -3.550781 4.71875 -3.242188 4.71875 -2.890625 L 4.71875 0 L 4.125 0 L 4.046875 -0.625 C 3.628906 -0.164062 3.050781 0.0625 2.3125 0.0625 Z M 1.296875 -1.328125 C 1.296875 -1.109375 1.390625 -0.929688 1.578125 -0.796875 C 1.765625 -0.660156 2.015625 -0.59375 2.328125 -0.59375 C 2.648438 -0.59375 2.929688 -0.648438 3.171875 -0.765625 C 3.421875 -0.890625 3.617188 -1.0625 3.765625 -1.28125 C 3.910156 -1.5 3.988281 -1.75 4 -2.03125 L 2.15625 -2.03125 C 1.90625 -2.03125 1.695312 -1.96875 1.53125 -1.84375 C 1.375 -1.71875 1.296875 -1.546875 1.296875 -1.328125 Z M 1.34375 -5.28125 L 2.4375 -6.625 L 3.03125 -6.625 L 4.125 -5.28125 L 3.34375 -5.28125 L 2.734375 -6.0625 L 2.125 -5.28125 Z M 1.34375 -5.28125 "/></g></g></g><g fill="#202020" fill-opacity="1"><g transform="translate(238.326939, 30.565905)"><g><path d="M 0.8125 0 L 0.8125 -4.5625 L 1.421875 -4.5625 L 1.5 -3.890625 C 1.695312 -4.160156 1.9375 -4.359375 2.21875 -4.484375 C 2.507812 -4.609375 2.804688 -4.671875 3.109375 -4.671875 C 3.710938 -4.671875 4.1875 -4.476562 4.53125 -4.09375 C 4.875 -3.707031 5.046875 -3.1875 5.046875 -2.53125 L 5.046875 0 L 4.296875 0 L 4.296875 -2.46875 C 4.296875 -2.925781 4.179688 -3.289062 3.953125 -3.5625 C 3.722656 -3.832031 3.410156 -3.96875 3.015625 -3.96875 C 2.734375 -3.96875 2.484375 -3.898438 2.265625 -3.765625 C 2.046875 -3.628906 1.867188 -3.429688 1.734375 -3.171875 C 1.609375 -2.921875 1.546875 -2.628906 1.546875 -2.296875 L 1.546875 0 Z M 0.8125 0 "/></g></g></g><g fill="#202020" fill-opacity="1"><g transform="translate(244.101293, 30.565905)"><g/></g></g><g fill="#202020" fill-opacity="1"><g transform="translate(246.280965, 30.565905)"><g><path d="M 0.8125 0 L 0.8125 -4.5625 L 1.421875 -4.5625 L 1.5 -3.984375 C 1.84375 -4.441406 2.335938 -4.671875 2.984375 -4.671875 C 3.335938 -4.671875 3.648438 -4.59375 3.921875 -4.4375 C 4.203125 -4.289062 4.421875 -4.070312 4.578125 -3.78125 C 4.941406 -4.375 5.503906 -4.671875 6.265625 -4.671875 C 6.835938 -4.671875 7.296875 -4.484375 7.640625 -4.109375 C 7.984375 -3.742188 8.15625 -3.242188 8.15625 -2.609375 L 8.15625 0 L 7.421875 0 L 7.421875 -2.484375 C 7.421875 -2.929688 7.304688 -3.289062 7.078125 -3.5625 C 6.859375 -3.832031 6.554688 -3.96875 6.171875 -3.96875 C 5.773438 -3.96875 5.457031 -3.828125 5.21875 -3.546875 C 4.976562 -3.265625 4.859375 -2.890625 4.859375 -2.421875 L 4.859375 0 L 4.125 0 L 4.125 -2.484375 C 4.125 -2.929688 4.007812 -3.289062 3.78125 -3.5625 C 3.550781 -3.832031 3.25 -3.96875 2.875 -3.96875 C 2.476562 -3.96875 2.15625 -3.828125 1.90625 -3.546875 C 1.664062 -3.265625 1.546875 -2.890625 1.546875 -2.421875 L 1.546875 0 Z M 0.8125 0 "/></g></g></g><g fill="#202020" fill-opacity="1"><g transform="translate(255.175414, 30.565905)"><g><path d="M 2.53125 -4.78125 C 3.101562 -4.78125 3.523438 -4.65625 3.796875 -4.40625 C 4.078125 -4.15625 4.21875 -3.753906 4.21875 -3.203125 L 4.21875 0 L 3.65625 0 L 3.5 -0.671875 L 3.46875 -0.671875 C 3.257812 -0.410156 3.039062 -0.21875 2.8125 -0.09375 C 2.582031 0.03125 2.273438 0.09375 1.890625 0.09375 C 1.460938 0.09375 1.109375 -0.0195312 0.828125 -0.25 C 0.546875 -0.476562 0.40625 -0.832031 0.40625 -1.3125 C 0.40625 -1.78125 0.585938 -2.140625 0.953125 -2.390625 C 1.328125 -2.648438 1.894531 -2.789062 2.65625 -2.8125 L 3.453125 -2.84375 L 3.453125 -3.125 C 3.453125 -3.507812 3.367188 -3.773438 3.203125 -3.921875 C 3.035156 -4.078125 2.796875 -4.15625 2.484375 -4.15625 C 2.234375 -4.15625 2 -4.117188 1.78125 -4.046875 C 1.5625 -3.972656 1.351562 -3.890625 1.15625 -3.796875 L 0.921875 -4.375 C 1.128906 -4.488281 1.375 -4.582031 1.65625 -4.65625 C 1.9375 -4.738281 2.226562 -4.78125 2.53125 -4.78125 Z M 3.453125 -2.296875 L 2.75 -2.28125 C 2.164062 -2.25 1.757812 -2.148438 1.53125 -1.984375 C 1.3125 -1.828125 1.203125 -1.597656 1.203125 -1.296875 C 1.203125 -1.035156 1.28125 -0.84375 1.4375 -0.71875 C 1.601562 -0.59375 1.8125 -0.53125 2.0625 -0.53125 C 2.457031 -0.53125 2.785156 -0.640625 3.046875 -0.859375 C 3.316406 -1.078125 3.453125 -1.414062 3.453125 -1.875 Z M 2.875 -6.71875 C 2.945312 -6.59375 3.046875 -6.445312 3.171875 -6.28125 C 3.304688 -6.125 3.445312 -5.96875 3.59375 -5.8125 C 3.738281 -5.65625 3.863281 -5.523438 3.96875 -5.421875 L 3.96875 -5.328125 L 3.4375 -5.328125 C 3.28125 -5.421875 3.117188 -5.535156 2.953125 -5.671875 C 2.796875 -5.804688 2.632812 -5.953125 2.46875 -6.109375 C 2.3125 -5.953125 2.15625 -5.804688 2 -5.671875 C 1.84375 -5.535156 1.6875 -5.421875 1.53125 -5.328125 L 1 -5.328125 L 1 -5.421875 C 1.113281 -5.523438 1.238281 -5.65625 1.375 -5.8125 C 1.519531 -5.96875 1.65625 -6.125 1.78125 -6.28125 C 1.90625 -6.445312 2.007812 -6.59375 2.09375 -6.71875 Z M 2.40625 1.546875 C 2.28125 1.546875 2.171875 1.503906 2.078125 1.421875 C 1.992188 1.335938 1.953125 1.210938 1.953125 1.046875 C 1.953125 0.878906 1.992188 0.753906 2.078125 0.671875 C 2.171875 0.597656 2.28125 0.5625 2.40625 0.5625 C 2.53125 0.5625 2.632812 0.597656 2.71875 0.671875 C 2.8125 0.753906 2.859375 0.878906 2.859375 1.046875 C 2.859375 1.210938 2.8125 1.335938 2.71875 1.421875 C 2.632812 1.503906 2.53125 1.546875 2.40625 1.546875 Z M 2.40625 1.546875 "/></g></g></g><g fill="#202020" fill-opacity="1"><g transform="translate(260.106026, 30.565905)"><g><path d="M 2.78125 0 C 2.28125 0 1.890625 -0.140625 1.609375 -0.421875 C 1.328125 -0.710938 1.1875 -1.117188 1.1875 -1.640625 L 1.1875 -3.875 L 0.234375 -3.875 L 0.234375 -4.5625 L 0.6875 -4.5625 C 0.90625 -4.5625 1.050781 -4.59375 1.125 -4.65625 C 1.207031 -4.726562 1.265625 -4.867188 1.296875 -5.078125 L 1.359375 -5.6875 L 1.9375 -5.6875 L 1.9375 -4.5625 L 3.40625 -4.5625 L 3.40625 -3.875 L 1.9375 -3.875 L 1.9375 -1.671875 C 1.9375 -1.035156 2.226562 -0.71875 2.8125 -0.71875 L 3.46875 -0.71875 L 3.46875 0 Z M 2.78125 0 "/></g></g></g></svg>